<svg xmlns="http://www.w3.org/2000/svg" viewBox="0 0 1080 1080">
  <defs>
    <style>
      .cls-1 {
        fill: #fff;
      }

      .cls-2 {
        fill: #189428;
      }
    </style>
  </defs>
  <title>Logotipo-Escuro2</title>
  <g id="Layer_6" data-name="Layer 6">
    <circle class="cls-1" cx="796" cy="535" r="32"/>
  </g>
  <g id="Layer_7" data-name="Layer 7">
    <g id="Layer_3-2" data-name="Layer 3">
      <g>
        <path class="cls-1" d="M220.94,484.85a52.2,52.2,0,0,1,19.76,3.92,53.49,53.49,0,0,1,16.24,10.76,50.23,50.23,0,0,1,10.76,16.23,52.42,52.42,0,0,1,3.91,19.76v47.54h-19v-7.82a53.33,53.33,0,0,1-14.47,8.22,50.43,50.43,0,0,1-17,2.93,52.38,52.38,0,0,1-19.76-3.91,53.43,53.43,0,0,1-16.24-10.76,50.05,50.05,0,0,1-10.76-16.24,51.76,51.76,0,0,1,0-39.52,53.49,53.49,0,0,1,10.76-16.24A50.16,50.16,0,0,1,201.38,489,48,48,0,0,1,220.94,484.85Zm0,82.37a29.45,29.45,0,0,0,12.32-2.55,31.24,31.24,0,0,0,10-6.84,30.62,30.62,0,0,0,6.65-10,31.06,31.06,0,0,0,0-24.65,31.71,31.71,0,0,0-6.65-10,34.86,34.86,0,0,0-10-6.85,33.13,33.13,0,0,0-12.32-2.54,31.15,31.15,0,0,0-22.3,9.39,34.8,34.8,0,0,0-6.85,10,32.93,32.93,0,0,0-2.54,12.32,29.61,29.61,0,0,0,2.54,12.33,31.22,31.22,0,0,0,6.85,10,34.92,34.92,0,0,0,10,6.84A29.53,29.53,0,0,0,220.94,567.22ZM245.59,469l-5.48,9.58-19-10.95-19,10.95L196.68,469l11.93-8.61,12.72-9.2,12.72,9.2Z"/>
        <path class="cls-1" d="M472.34,583.06h-19V535.52a29.6,29.6,0,0,0-2.54-12.32,31.55,31.55,0,0,0-6.85-10,35,35,0,0,0-10-6.85,33.13,33.13,0,0,0-12.32-2.54A32.41,32.41,0,0,0,407,507.35,30.39,30.39,0,0,0,396,516.94a49.77,49.77,0,0,1,3.52,18.58v47.54h-19V535.52a30.22,30.22,0,0,0-6.06-18.58,32.17,32.17,0,0,0-11-9.59,31.21,31.21,0,0,0-14.67-3.52,31.15,31.15,0,0,0-22.3,9.39,34.8,34.8,0,0,0-6.85,10,32.94,32.94,0,0,0-2.55,12.32v47.54h-19V535.52a52.42,52.42,0,0,1,3.91-19.76,53.32,53.32,0,0,1,10.76-16.23,50,50,0,0,1,16.24-10.76,52.2,52.2,0,0,1,19.76-3.92A50.86,50.86,0,0,1,369,489a49.77,49.77,0,0,1,16.24,11.35A51.74,51.74,0,0,1,401.52,489a50.79,50.79,0,0,1,20.15-4.11,52.24,52.24,0,0,1,19.76,3.92,53.32,53.32,0,0,1,16.23,10.76,49.91,49.91,0,0,1,10.76,16.23,52.24,52.24,0,0,1,3.92,19.76Z"/>
        <path class="cls-1" d="M546.48,484.85a52.2,52.2,0,0,1,19.76,3.92,53.24,53.24,0,0,1,16.24,10.76,49.91,49.91,0,0,1,10.76,16.23,52.24,52.24,0,0,1,3.92,19.76v47.54h-19v-7.82a53.38,53.38,0,0,1-14.48,8.22,50.39,50.39,0,0,1-17,2.93,52.38,52.38,0,0,1-19.76-3.91,53.67,53.67,0,0,1-16.24-10.76,50.38,50.38,0,0,1-10.76-16.24,51.89,51.89,0,0,1,0-39.52,53.67,53.67,0,0,1,10.76-16.24A50.38,50.38,0,0,1,526.92,489,46.75,46.75,0,0,1,546.48,484.85Zm0,82.37a29.47,29.47,0,0,0,12.33-2.55,31.35,31.35,0,0,0,10-6.84,30.94,30.94,0,0,0,6.65-10,31.17,31.17,0,0,0,0-24.65,31.88,31.88,0,0,0-6.65-10,35,35,0,0,0-10-6.85,33.14,33.14,0,0,0-12.33-2.54,31.2,31.2,0,0,0-22.3,9.39,35.2,35.2,0,0,0-6.85,10,33.13,33.13,0,0,0-2.54,12.32,29.61,29.61,0,0,0,2.54,12.33,31.55,31.55,0,0,0,6.85,10,35,35,0,0,0,10,6.84A28.23,28.23,0,0,0,546.48,567.22Z"/>
        <path class="cls-1" d="M671.11,484.85a52.24,52.24,0,0,1,19.76,3.92,53.49,53.49,0,0,1,16.24,10.76,50.23,50.23,0,0,1,10.76,16.23,52.42,52.42,0,0,1,3.91,19.76v47.54a49.37,49.37,0,0,1-6.85,25.24l-16.43-8.61a33,33,0,0,0,4.3-16.63v-7.82a2.47,2.47,0,0,0-.78.59A49.76,49.76,0,0,1,676.39,586a45.58,45.58,0,0,1-5.09.19,49.38,49.38,0,0,1-30.71-10.36,48.66,48.66,0,0,1-13.89-16.44,49.82,49.82,0,0,1-5.87-23.67A52.38,52.38,0,0,1,624.74,516a53.49,53.49,0,0,1,10.76-16.24A50.27,50.27,0,0,1,651.74,489,45.85,45.85,0,0,1,671.11,484.85Zm30.71,57.91a30.2,30.2,0,0,0,.79-7.24,29.61,29.61,0,0,0-2.55-12.32,31.22,31.22,0,0,0-6.85-10,35,35,0,0,0-10-6.85,33.18,33.18,0,0,0-12.33-2.54,29.6,29.6,0,0,0-12.32,2.54,31.43,31.43,0,0,0-10,6.85,34.8,34.8,0,0,0-6.85,10,33.13,33.13,0,0,0-2.54,12.32,29.13,29.13,0,0,0,.78,7.24,31.38,31.38,0,0,0,10,16.44A30.27,30.27,0,0,0,670.91,567a30.64,30.64,0,0,0,20.94-7.82A27.9,27.9,0,0,0,701.82,542.76Z"/>
      </g>
      <g id="Layer_2-2" data-name="Layer 2">
        <path class="cls-1" d="M721,589.52H702.21a31,31,0,0,1-61,0H622.78a49.19,49.19,0,0,0,48.91,43.82c25.24,0,46.57-19.17,49.31-43.82Z"/>
        <g>
          <path class="cls-2" d="M813.92,474.29c-.39-.2-.78-.2-1.17-.39h0A2.84,2.84,0,0,0,813.92,474.29Z"/>
          <path class="cls-2" d="M767.56,479a4.32,4.32,0,0,0-1.57,1A7.1,7.1,0,0,1,767.56,479Z"/>
          <path class="cls-2" d="M764.62,480.55c-.58.39-1,.59-1.56,1A6.83,6.83,0,0,0,764.62,480.55Z"/>
          <path class="cls-2" d="M777.14,474.88l-1.76.58Z"/>
          <path class="cls-2" d="M773.82,476.05a7,7,0,0,0-1.76.78A7,7,0,0,1,773.82,476.05Z"/>
          <path class="cls-2" d="M770.69,477.42c-.59.19-1.18.59-1.76.78A6.64,6.64,0,0,1,770.69,477.42Z"/>
          <path class="cls-2" d="M752.49,490.33l1.37-1.37A8.85,8.85,0,0,1,752.49,490.33Z"/>
          <path class="cls-2" d="M751.52,491.51c-.4.39-.79,1-1.18,1.36C750.73,492.48,751.12,491.9,751.52,491.51Z"/>
          <path class="cls-2" d="M759,484.46c-.39.39-1,.78-1.37,1.18C758,485.24,758.56,484.85,759,484.46Z"/>
          <path class="cls-2" d="M761.69,482.51a6.69,6.69,0,0,1-1.57,1A4.17,4.17,0,0,0,761.69,482.51Z"/>
          <path class="cls-2" d="M818.62,476.05a7.14,7.14,0,0,1,1.76.78A7.14,7.14,0,0,0,818.62,476.05Z"/>
          <path class="cls-2" d="M822,477.42c.58.19,1.17.59,1.76.78A6.93,6.93,0,0,0,822,477.42Z"/>
          <path class="cls-2" d="M825.08,479a4.37,4.37,0,0,1,1.56,1C826.05,479.57,825.47,479.18,825.08,479Z"/>
          <path class="cls-2" d="M815.49,474.88l1.76.58Z"/>
          <path class="cls-2" d="M828,480.55c.59.39,1,.59,1.57,1A4.32,4.32,0,0,1,828,480.55Z"/>
          <path class="cls-2" d="M778.71,474.29c.39-.2.78-.2,1.17-.39h0A2.84,2.84,0,0,1,778.71,474.29Z"/>
          <path class="cls-2" d="M836.23,486.81c.39.39,1,.78,1.37,1.17C837.21,487.59,836.62,487.2,836.23,486.81Z"/>
          <path class="cls-2" d="M838.77,489l1.37,1.37A4.48,4.48,0,0,1,838.77,489Z"/>
          <path class="cls-2" d="M833.68,484.46c.4.39,1,.78,1.37,1.18A9.9,9.9,0,0,1,833.68,484.46Z"/>
          <path class="cls-2" d="M831,482.51a6.45,6.45,0,0,0,1.56,1A4.13,4.13,0,0,1,831,482.51Z"/>
          <path class="cls-2" d="M756.41,486.81c-.39.39-1,.78-1.37,1.17A8.32,8.32,0,0,1,756.41,486.81Z"/>
          <path class="cls-2" d="M782,473.31c.58-.19,1.36-.19,2-.39"/>
          <path class="cls-2" d="M779.88,473.9h0c.2,0,.59-.2.79-.2"/>
          <path class="cls-2" d="M780.86,462.55V460.2a6.6,6.6,0,0,1,6.65-6.65h17.61a6.6,6.6,0,0,1,6.65,6.65v2.94a68.45,68.45,0,0,1,6.85,1.95,10.07,10.07,0,0,0,.2-2.54V460.2a13.73,13.73,0,0,0-13.7-13.69H787.51a13.73,13.73,0,0,0-13.69,13.69v2.35a11.45,11.45,0,0,0,.19,2.54,69.22,69.22,0,0,1,6.85-1.95Z"/>
          <path class="cls-2" d="M751.52,491.51l1.17-1.18,1.37-1.37,1.17-1.17c.39-.39,1-.78,1.37-1.18a4.85,4.85,0,0,1,1.18-1c.39-.4,1-.79,1.37-1.18a8.71,8.71,0,0,1,1.37-1,6.45,6.45,0,0,1,1.56-1,7.58,7.58,0,0,1,1.37-1c.59-.39,1-.59,1.56-1,.4-.2,1-.59,1.37-.78.59-.39,1-.59,1.57-1,.39-.2,1-.59,1.37-.78.59-.2,1.17-.59,1.76-.79.39-.19,1-.39,1.37-.58a6.83,6.83,0,0,0,1.76-.79c.59-.19,1-.39,1.56-.58l1.77-.59c.58-.2,1-.39,1.56-.59.39-.19.78-.19,1.17-.39a14.51,14.51,0,0,1-5.86-8.8A70.76,70.76,0,0,0,741.34,488a5.08,5.08,0,0,0,4.11,8.22,5.49,5.49,0,0,0,4.11-2l.39-.39c.39-.39.59-.78,1-1.17C750.73,492.48,751.12,491.9,751.52,491.51Z"/>
          <path class="cls-2" d="M851.68,488.18a70.75,70.75,0,0,0-33.06-23.09,12.67,12.67,0,0,1-5.87,8.81c.39.19.78.19,1.17.39.59.19,1,.39,1.57.59l1.76.58c.59.2,1,.39,1.57.59a7.31,7.31,0,0,1,1.76.78c.39.2,1,.39,1.37.59.58.19,1.17.59,1.76.78.39.2,1,.59,1.37.78a4.37,4.37,0,0,1,1.56,1c.39.2,1,.59,1.37.79.59.39,1,.58,1.57,1a6.37,6.37,0,0,1,1.37,1,6.83,6.83,0,0,0,1.56,1,8.11,8.11,0,0,0,1.37,1c.39.39,1,.78,1.37,1.17s.78.59,1.17,1,1,.78,1.37,1.17l1.18,1.18,1.37,1.37,1.17,1.17c.39.39.78,1,1.17,1.37a4.83,4.83,0,0,1,1,1.17l.39.4a5.53,5.53,0,0,0,4.11,1.95A5.21,5.21,0,0,0,851.68,488.18Z"/>
          <path class="cls-2" d="M780.86,463.14a6.61,6.61,0,0,0,6.65,6.06h17.61c3.52.33,7-2.59,7.24-5.92a72.22,72.22,0,0,0-16-1.9A97.35,97.35,0,0,0,780.86,463.14Z"/>
          <path class="cls-2" d="M812.36,473.7c.2,0,.59.2.78.2a14.5,14.5,0,0,0,5.87-8.81,68.45,68.45,0,0,0-6.85-1.95,6.61,6.61,0,0,1-6.65,6.06H787.9a7.16,7.16,0,0,1-7-6.06,60.7,60.7,0,0,0-6.45,1.76,11.43,11.43,0,0,0,5.47,9c.2,0,.59-.2.79-.2.58-.19,1-.19,1.56-.39s1.37-.19,2-.39,1-.2,1.56-.39c.79-.2,1.37-.2,2.15-.39.4,0,1-.2,1.37-.2.79,0,1.57-.19,2.35-.19a2.48,2.48,0,0,0,1.18-.2c1.17,0,2.34-.2,3.71-.2a24.41,24.41,0,0,1,3.72.2,2.42,2.42,0,0,1,1.17.2c.79,0,1.57.19,2.35.19.39,0,1,.2,1.37.2.78.19,1.37.19,2.15.39a4.53,4.53,0,0,1,1.57.39"/>
          <path class="cls-2" d="M836.23,486.61a5.25,5.25,0,0,1-1.18-1"/>
          <path class="cls-2" d="M813.92,474.29c.59.19,1,.39,1.57.59C814.9,474.68,814.51,474.48,813.92,474.29Z"/>
          <path class="cls-2" d="M818.82,476.05a13.25,13.25,0,0,1-1.57-.59"/>
          <path class="cls-2" d="M750.15,492.87a5.15,5.15,0,0,1-1,1.18"/>
          <path class="cls-2" d="M832.31,483.48a8.37,8.37,0,0,0,1.37,1"/>
          <path class="cls-2" d="M828,480.55a5,5,0,0,1-1.37-.78"/>
          <path class="cls-2" d="M821.75,477.22a2.6,2.6,0,0,1-1.37-.58"/>
          <path class="cls-2" d="M831,482.51a8.71,8.71,0,0,1-1.37-1"/>
          <path class="cls-2" d="M759,484.46c.39-.19.78-.58,1.37-1"/>
          <path class="cls-2" d="M756.41,486.61a5,5,0,0,0,1.17-1"/>
          <path class="cls-2" d="M764.62,480.55a5,5,0,0,0,1.37-.78"/>
          <path class="cls-2" d="M768.93,478.2c-.39.2-1,.59-1.37.78"/>
          <path class="cls-2" d="M755,487.79a6.82,6.82,0,0,1-1.18,1.17"/>
          <path class="cls-2" d="M751.32,491.51a6.81,6.81,0,0,0,1.17-1.18"/>
          <path class="cls-2" d="M761.69,482.51c.39-.4,1-.59,1.37-1"/>
          <path class="cls-2" d="M778.71,474.29c-.59.19-1,.39-1.57.59C777.73,474.68,778.12,474.48,778.71,474.29Z"/>
          <path class="cls-2" d="M775.38,475.46c-.58.2-1,.39-1.56.59C774.41,475.85,774.8,475.66,775.38,475.46Z"/>
          <path class="cls-2" d="M770.69,477.22a2.11,2.11,0,0,0,1.37-.58"/>
          <path class="cls-2" d="M782,473.31a4.53,4.53,0,0,1-1.57.39"/>
          <path class="cls-2" d="M785.56,472.53a4.76,4.76,0,0,1-1.57.39"/>
          <path class="cls-2" d="M796.32,480.55a51.89,51.89,0,0,0-52,52c0,28.95,30.71,107,52,107.6s52-78.84,52-107.6A51.77,51.77,0,0,0,796.32,480.55Zm0,86.28a32.09,32.09,0,1,1,32.08-32.09A32.09,32.09,0,0,1,796.32,566.83Z"/>
        </g>
      </g>
    </g>
  </g>
</svg>
