<svg xmlns="http://www.w3.org/2000/svg" viewBox="0 0 1080 1080">
  <defs>
    <style>
      .cls-1 {
        fill: #fff;
      }

      .cls-2 {
        fill: #189428;
      }
    </style>
  </defs>
  <title>Logotipo-Escuro</title>
  <g id="Layer_6" data-name="Layer 6">
    <g id="Layer_3-2" data-name="Layer 3">
      <g>
        <path class="cls-1" d="M231.18,502.26a52.24,52.24,0,0,1,19.76,3.92,53.32,53.32,0,0,1,16.23,10.76,49.91,49.91,0,0,1,10.76,16.23,52.24,52.24,0,0,1,3.92,19.76v47.54h-19v-7.82a53.24,53.24,0,0,1-14.48,8.22,50.34,50.34,0,0,1-17,2.93,52.38,52.38,0,0,1-19.76-3.91,53.67,53.67,0,0,1-16.24-10.76,50.38,50.38,0,0,1-10.76-16.24,51.89,51.89,0,0,1,0-39.52,53.67,53.67,0,0,1,10.76-16.24,50.21,50.21,0,0,1,16.24-10.76A48.08,48.08,0,0,1,231.18,502.26Zm0,82.37a29.45,29.45,0,0,0,12.32-2.55,31.24,31.24,0,0,0,10-6.84,30.78,30.78,0,0,0,6.65-10,31.17,31.17,0,0,0,0-24.65,31.71,31.71,0,0,0-6.65-10,34.86,34.86,0,0,0-10-6.85,33.13,33.13,0,0,0-12.32-2.54,31.2,31.2,0,0,0-22.31,9.39,35,35,0,0,0-6.84,10,32.94,32.94,0,0,0-2.55,12.32A29.62,29.62,0,0,0,202,565.26a31.35,31.35,0,0,0,6.84,10,35,35,0,0,0,10,6.84A29.47,29.47,0,0,0,231.18,584.63Zm24.65-98.21L250.35,496l-19-10.95L212.4,496l-5.48-9.58,11.93-8.61,12.72-9.2,12.71,9.2Z"/>
        <path class="cls-1" d="M482.57,600.47h-19V552.93a29.61,29.61,0,0,0-2.55-12.32,31.35,31.35,0,0,0-6.84-10,35,35,0,0,0-10-6.85,33.14,33.14,0,0,0-12.33-2.54,32.4,32.4,0,0,0-14.67,3.52,30.5,30.5,0,0,0-11,9.59,49.78,49.78,0,0,1,3.53,18.58v47.54h-19V552.93a30.23,30.23,0,0,0-6.07-18.58,32.13,32.13,0,0,0-10.95-9.59,31.21,31.21,0,0,0-14.67-3.52,31.2,31.2,0,0,0-22.31,9.39,35.2,35.2,0,0,0-6.85,10,33.13,33.13,0,0,0-2.54,12.32v47.54h-19V552.93a52.24,52.24,0,0,1,3.92-19.76,53.32,53.32,0,0,1,10.76-16.23,49.84,49.84,0,0,1,16.24-10.76,52.2,52.2,0,0,1,19.76-3.92,50.86,50.86,0,0,1,20.15,4.11,49.62,49.62,0,0,1,16.23,11.35,52,52,0,0,1,16.24-11.35,50.86,50.86,0,0,1,20.15-4.11,52.2,52.2,0,0,1,19.76,3.92,53.24,53.24,0,0,1,16.24,10.76,49.91,49.91,0,0,1,10.76,16.23,52.42,52.42,0,0,1,3.91,19.76Z"/>
        <path class="cls-1" d="M556.72,502.26a52.2,52.2,0,0,1,19.76,3.92,53.37,53.37,0,0,1,16.24,10.76,50.07,50.07,0,0,1,10.76,16.23,52.42,52.42,0,0,1,3.91,19.76v47.54h-19v-7.82a53.38,53.38,0,0,1-14.48,8.22,50.39,50.39,0,0,1-17,2.93,52.38,52.38,0,0,1-19.76-3.91,53.43,53.43,0,0,1-16.24-10.76,50.05,50.05,0,0,1-10.76-16.24,51.89,51.89,0,0,1,0-39.52,53.49,53.49,0,0,1,10.76-16.24,50,50,0,0,1,16.24-10.76A46.72,46.72,0,0,1,556.72,502.26Zm0,82.37a29.5,29.5,0,0,0,12.33-2.55,31.31,31.31,0,0,0,10-6.84,30.81,30.81,0,0,0,6.66-10,31.17,31.17,0,0,0,0-24.65,31.91,31.91,0,0,0-6.66-10,35,35,0,0,0-10-6.85,33.18,33.18,0,0,0-12.33-2.54,31.2,31.2,0,0,0-22.3,9.39,34.8,34.8,0,0,0-6.85,10A33.13,33.13,0,0,0,525,552.93a29.61,29.61,0,0,0,2.54,12.33,31.38,31.38,0,0,0,6.85,10,34.83,34.83,0,0,0,10,6.84A28.2,28.2,0,0,0,556.72,584.63Z"/>
        <path class="cls-1" d="M681.34,502.26a52.2,52.2,0,0,1,19.76,3.92,53.24,53.24,0,0,1,16.24,10.76,49.91,49.91,0,0,1,10.76,16.23A52.24,52.24,0,0,1,732,552.93v47.54a49.37,49.37,0,0,1-6.85,25.24l-16.44-8.61A32.89,32.89,0,0,0,713,600.47v-7.82a2.47,2.47,0,0,0-.78.59,49.76,49.76,0,0,1-25.63,10.17,45.58,45.58,0,0,1-5.09.19,49.41,49.41,0,0,1-30.72-10.36,48.89,48.89,0,0,1-13.89-16.44,49.93,49.93,0,0,1-5.86-23.67A52.19,52.19,0,0,1,635,533.37a53.49,53.49,0,0,1,10.76-16.24A50,50,0,0,1,662,506.37,45.84,45.84,0,0,1,681.34,502.26Zm30.72,57.91a30.19,30.19,0,0,0,.78-7.24,29.6,29.6,0,0,0-2.54-12.32,31.38,31.38,0,0,0-6.85-10,34.86,34.86,0,0,0-10-6.85,33.13,33.13,0,0,0-12.32-2.54,29.65,29.65,0,0,0-12.33,2.54,31.5,31.5,0,0,0-10,6.85,34.8,34.8,0,0,0-6.85,10,32.93,32.93,0,0,0-2.54,12.32,29.13,29.13,0,0,0,.78,7.24,31.31,31.31,0,0,0,10,16.44,30.25,30.25,0,0,0,20.93,7.82,30.6,30.6,0,0,0,20.93-7.82A27.91,27.91,0,0,0,712.06,560.17Z"/>
      </g>
      <g id="Layer_2-2" data-name="Layer 2">
        <path class="cls-1" d="M731.23,606.93H712.45a31,31,0,0,1-61,0H633a49.19,49.19,0,0,0,48.91,43.82c25.24,0,46.56-19.17,49.3-43.82Z"/>
        <g>
          <path class="cls-2" d="M824.16,491.7c-.39-.2-.78-.2-1.17-.39h0A2.84,2.84,0,0,0,824.16,491.7Z"/>
          <path class="cls-2" d="M777.8,496.39a4.32,4.32,0,0,0-1.57,1A7.1,7.1,0,0,1,777.8,496.39Z"/>
          <path class="cls-2" d="M774.86,498c-.59.39-1,.59-1.56,1A7.29,7.29,0,0,0,774.86,498Z"/>
          <path class="cls-2" d="M787.38,492.29l-1.76.58Z"/>
          <path class="cls-2" d="M784.06,493.46a6.84,6.84,0,0,0-1.77.78A7.2,7.2,0,0,1,784.06,493.46Z"/>
          <path class="cls-2" d="M780.93,494.83c-.59.19-1.18.59-1.77.78A6.84,6.84,0,0,1,780.93,494.83Z"/>
          <path class="cls-2" d="M762.73,507.74l1.37-1.37A8.85,8.85,0,0,1,762.73,507.74Z"/>
          <path class="cls-2" d="M761.75,508.91c-.39.4-.78,1-1.17,1.37C761,509.89,761.36,509.31,761.75,508.91Z"/>
          <path class="cls-2" d="M769.19,501.87c-.39.39-1,.78-1.37,1.18C768.21,502.65,768.8,502.26,769.19,501.87Z"/>
          <path class="cls-2" d="M771.93,499.92a6.69,6.69,0,0,1-1.57,1A4.25,4.25,0,0,0,771.93,499.92Z"/>
          <path class="cls-2" d="M828.86,493.46a6.93,6.93,0,0,1,1.76.78A7.31,7.31,0,0,0,828.86,493.46Z"/>
          <path class="cls-2" d="M832.18,494.83c.59.19,1.18.59,1.76.78A6.64,6.64,0,0,0,832.18,494.83Z"/>
          <path class="cls-2" d="M835.31,496.39a4.32,4.32,0,0,1,1.57,1C836.29,497,835.7,496.59,835.31,496.39Z"/>
          <path class="cls-2" d="M825.73,492.29l1.76.58Z"/>
          <path class="cls-2" d="M838.25,498c.58.39,1,.59,1.56,1A4.37,4.37,0,0,1,838.25,498Z"/>
          <path class="cls-2" d="M789,491.7c.39-.2.78-.2,1.17-.39h0A2.84,2.84,0,0,1,789,491.7Z"/>
          <path class="cls-2" d="M846.46,504.22c.4.39,1,.78,1.37,1.17C847.44,505,846.86,504.61,846.46,504.22Z"/>
          <path class="cls-2" d="M849,506.37l1.37,1.37A4.48,4.48,0,0,1,849,506.37Z"/>
          <path class="cls-2" d="M843.92,501.87c.39.39,1,.78,1.37,1.18A8.85,8.85,0,0,1,843.92,501.87Z"/>
          <path class="cls-2" d="M841.18,499.92a6.69,6.69,0,0,0,1.57,1A4.17,4.17,0,0,1,841.18,499.92Z"/>
          <path class="cls-2" d="M766.64,504.22c-.39.39-1,.78-1.37,1.17A9.25,9.25,0,0,1,766.64,504.22Z"/>
          <path class="cls-2" d="M792.27,490.72c.59-.2,1.37-.2,2-.39"/>
          <path class="cls-2" d="M790.12,491.31h0c.2,0,.59-.2.78-.2"/>
          <path class="cls-2" d="M791.1,480v-2.35a6.6,6.6,0,0,1,6.65-6.65h17.61a6.6,6.6,0,0,1,6.65,6.65v2.94a68.45,68.45,0,0,1,6.85,1.95,10.59,10.59,0,0,0,.19-2.54v-2.35a13.73,13.73,0,0,0-13.69-13.69H797.75a13.73,13.73,0,0,0-13.69,13.69V480a11.45,11.45,0,0,0,.19,2.54,68.45,68.45,0,0,1,6.85-1.95Z"/>
          <path class="cls-2" d="M761.75,508.91l1.18-1.17,1.37-1.37,1.17-1.17c.39-.39,1-.78,1.37-1.18a5,5,0,0,1,1.17-1c.39-.4,1-.79,1.37-1.18a9.21,9.21,0,0,1,1.37-1,6.69,6.69,0,0,1,1.57-1,7.58,7.58,0,0,1,1.37-1c.58-.39,1-.59,1.56-1,.39-.2,1-.59,1.37-.78.59-.39,1-.59,1.57-1,.39-.2,1-.59,1.37-.78.58-.2,1.17-.59,1.76-.79.39-.19,1-.39,1.37-.58a7,7,0,0,0,1.76-.79c.58-.19,1-.39,1.56-.58l1.76-.59c.59-.2,1-.39,1.57-.59.39-.19.78-.19,1.17-.39a14.56,14.56,0,0,1-5.87-8.8,70.73,70.73,0,0,0-33.06,23.08,5.07,5.07,0,0,0,4.11,8.22,5.5,5.5,0,0,0,4.11-2l.39-.39c.39-.39.58-.78,1-1.17C761,509.89,761.36,509.31,761.75,508.91Z"/>
          <path class="cls-2" d="M861.92,505.59a70.75,70.75,0,0,0-33.06-23.09,12.67,12.67,0,0,1-5.87,8.81c.39.19.78.19,1.17.39.59.19,1,.39,1.57.59l1.76.58c.58.2,1,.39,1.56.59a7,7,0,0,1,1.76.78c.39.2,1,.39,1.37.59.59.19,1.18.59,1.76.78.4.2,1,.59,1.37.78a4.32,4.32,0,0,1,1.57,1c.39.2,1,.59,1.37.79.58.39,1,.58,1.56,1a6.13,6.13,0,0,1,1.37,1,7.1,7.1,0,0,0,1.57,1,8.11,8.11,0,0,0,1.37,1c.39.39,1,.78,1.37,1.17s.78.59,1.17,1,1,.78,1.37,1.17l1.17,1.18,1.37,1.37,1.18,1.17c.39.39.78,1,1.17,1.37a5.34,5.34,0,0,1,1,1.17l.39.4a5.51,5.51,0,0,0,4.11,2A5.21,5.21,0,0,0,861.92,505.59Z"/>
          <path class="cls-2" d="M791.1,480.55a6.61,6.61,0,0,0,6.65,6.06h17.61c3.52.33,7-2.59,7.24-5.92a72.24,72.24,0,0,0-16.05-1.9A97.35,97.35,0,0,0,791.1,480.55Z"/>
          <path class="cls-2" d="M822.6,491.11c.19,0,.58.2.78.2a14.54,14.54,0,0,0,5.87-8.81,68.45,68.45,0,0,0-6.85-1.95,6.61,6.61,0,0,1-6.65,6.06H798.14a7.15,7.15,0,0,1-7-6.06,60.89,60.89,0,0,0-6.46,1.76,11.48,11.48,0,0,0,5.48,9c.2,0,.59-.2.78-.2.59-.19,1-.19,1.57-.39s1.37-.2,1.95-.39,1-.2,1.57-.39c.78-.2,1.37-.2,2.15-.39.39,0,1-.2,1.37-.2.78,0,1.57-.19,2.35-.19A2.42,2.42,0,0,0,803,489c1.18,0,2.35-.2,3.72-.2a24.47,24.47,0,0,1,3.72.2,2.42,2.42,0,0,1,1.17.2c.78,0,1.57.19,2.35.19.39,0,1,.2,1.37.2.78.19,1.37.19,2.15.39a4.53,4.53,0,0,1,1.57.39"/>
          <path class="cls-2" d="M846.46,504a5,5,0,0,1-1.17-1"/>
          <path class="cls-2" d="M824.16,491.7c.59.19,1,.39,1.57.59C825.14,492.09,824.75,491.89,824.16,491.7Z"/>
          <path class="cls-2" d="M829.05,493.46a13.72,13.72,0,0,1-1.56-.59"/>
          <path class="cls-2" d="M760.38,510.28a4.68,4.68,0,0,1-1,1.18"/>
          <path class="cls-2" d="M842.55,500.89a8.11,8.11,0,0,0,1.37,1"/>
          <path class="cls-2" d="M838.25,498a5,5,0,0,1-1.37-.78"/>
          <path class="cls-2" d="M832,494.63a2.57,2.57,0,0,1-1.37-.58"/>
          <path class="cls-2" d="M841.18,499.92a9.21,9.21,0,0,1-1.37-1"/>
          <path class="cls-2" d="M769.19,501.87c.39-.19.78-.59,1.37-1"/>
          <path class="cls-2" d="M766.64,504a5,5,0,0,0,1.18-1"/>
          <path class="cls-2" d="M774.86,498a5,5,0,0,0,1.37-.78"/>
          <path class="cls-2" d="M779.16,495.61c-.39.2-1,.59-1.36.78"/>
          <path class="cls-2" d="M765.27,505.2a6.79,6.79,0,0,1-1.17,1.17"/>
          <path class="cls-2" d="M761.56,508.91a6.79,6.79,0,0,0,1.17-1.17"/>
          <path class="cls-2" d="M771.93,499.92c.39-.4,1-.59,1.37-1"/>
          <path class="cls-2" d="M789,491.7c-.59.19-1,.39-1.57.59C788,492.09,788.36,491.89,789,491.7Z"/>
          <path class="cls-2" d="M785.62,492.87c-.59.2-1,.39-1.56.59C784.64,493.26,785,493.07,785.62,492.87Z"/>
          <path class="cls-2" d="M780.93,494.63a2.09,2.09,0,0,0,1.36-.58"/>
          <path class="cls-2" d="M792.27,490.72a4.48,4.48,0,0,1-1.56.39"/>
          <path class="cls-2" d="M795.79,489.94a4.65,4.65,0,0,1-1.56.39"/>
          <path class="cls-2" d="M806.55,498a51.89,51.89,0,0,0-52,52c0,29,30.72,107,52,107.6s52-78.84,52-107.6A51.76,51.76,0,0,0,806.55,498Zm0,86.28a32.09,32.09,0,1,1,32.09-32.09A32.09,32.09,0,0,1,806.55,584.24Z"/>
        </g>
      </g>
    </g>
  </g>
</svg>
