<svg xmlns="http://www.w3.org/2000/svg" viewBox="0 0 1080 1080">
  <defs>
    <style>
      .cls-1 {
        fill: none;
      }

      .cls-2 {
        fill: #189428;
      }
    </style>
  </defs>
  <title>Logotipo-Preto</title>
  <g id="Layer_3" data-name="Layer 3">
    <g id="Layer_3-2" data-name="Layer 3">
      <g>
        <path d="M249.43,480.1A52.34,52.34,0,0,1,269.21,484a53.3,53.3,0,0,1,16.26,10.77A50.18,50.18,0,0,1,296.24,511a52.54,52.54,0,0,1,3.92,19.79v47.59h-19v-7.84a53.26,53.26,0,0,1-14.5,8.23,50.21,50.21,0,0,1-17,2.94,52.45,52.45,0,0,1-19.78-3.92,53.55,53.55,0,0,1-16.26-10.77,50.06,50.06,0,0,1-10.77-16.26,51.86,51.86,0,0,1,0-39.56A53.49,53.49,0,0,1,213.59,495a50.11,50.11,0,0,1,16.26-10.77A48.13,48.13,0,0,1,249.43,480.1Zm0,82.45A29.69,29.69,0,0,0,261.77,560a31.45,31.45,0,0,0,10-6.86,31,31,0,0,0,6.66-10,31.22,31.22,0,0,0,0-24.67,32,32,0,0,0-6.66-10,35.08,35.08,0,0,0-10-6.86,33.23,33.23,0,0,0-12.34-2.54,31.2,31.2,0,0,0-22.33,9.4,35,35,0,0,0-6.85,10,33,33,0,0,0-2.55,12.34,29.65,29.65,0,0,0,2.55,12.33,31.59,31.59,0,0,0,6.85,10,35.08,35.08,0,0,0,10,6.86A29.69,29.69,0,0,0,249.43,562.55Zm24.68-98.31-5.49,9.59-19-11-19,11-5.49-9.59,12-8.62,12.73-9.21,12.73,9.21Z"/>
        <path d="M501.1,578.42h-19V530.83a29.51,29.51,0,0,0-2.55-12.34,31.26,31.26,0,0,0-6.85-10,35.08,35.08,0,0,0-10-6.86,33.23,33.23,0,0,0-12.34-2.54,32.45,32.45,0,0,0-14.69,3.52,30.45,30.45,0,0,0-11,9.6,49.85,49.85,0,0,1,3.52,18.61v47.59h-19V530.83a30.27,30.27,0,0,0-6.07-18.61,32.23,32.23,0,0,0-11-9.6,31.25,31.25,0,0,0-14.68-3.52,31.2,31.2,0,0,0-22.33,9.4,35.08,35.08,0,0,0-6.86,10,33.19,33.19,0,0,0-2.54,12.34v47.59h-19V530.83A52.35,52.35,0,0,1,330.71,511a53.26,53.26,0,0,1,10.77-16.25A50,50,0,0,1,357.73,484a52.35,52.35,0,0,1,19.79-3.92,50.92,50.92,0,0,1,20.17,4.11,49.73,49.73,0,0,1,16.25,11.36,52,52,0,0,1,16.26-11.36,50.92,50.92,0,0,1,20.17-4.11A52.26,52.26,0,0,1,470.15,484a53.3,53.3,0,0,1,16.26,10.77A50.18,50.18,0,0,1,497.18,511a52.35,52.35,0,0,1,3.92,19.79Z"/>
        <path d="M575.32,480.1A52.26,52.26,0,0,1,595.1,484a53.18,53.18,0,0,1,16.26,10.77A50,50,0,0,1,622.13,511a52.35,52.35,0,0,1,3.92,19.79v47.59h-19v-7.84a53.06,53.06,0,0,1-14.49,8.23,50.31,50.31,0,0,1-17,2.94,52.49,52.49,0,0,1-19.78-3.92,53.67,53.67,0,0,1-16.26-10.77,50.22,50.22,0,0,1-10.77-16.26,51.86,51.86,0,0,1,0-39.56A53.67,53.67,0,0,1,539.48,495a50.22,50.22,0,0,1,16.26-10.77A46.81,46.81,0,0,1,575.32,480.1Zm0,82.45A29.69,29.69,0,0,0,587.66,560a31.45,31.45,0,0,0,10-6.86,30.85,30.85,0,0,0,6.66-10,31.11,31.11,0,0,0,0-24.67,32,32,0,0,0-6.66-10,35.08,35.08,0,0,0-10-6.86,33.23,33.23,0,0,0-12.34-2.54A29.69,29.69,0,0,0,563,501.64a29.34,29.34,0,0,0-10,6.86,34.88,34.88,0,0,0-6.86,10,33.19,33.19,0,0,0-2.54,12.34,29.65,29.65,0,0,0,2.54,12.33,31.45,31.45,0,0,0,6.86,10A34.89,34.89,0,0,0,563,560,28.49,28.49,0,0,0,575.32,562.55Z"/>
        <path d="M700.08,480.1A52.34,52.34,0,0,1,719.86,484a53.3,53.3,0,0,1,16.26,10.77A50.18,50.18,0,0,1,746.89,511a52.54,52.54,0,0,1,3.91,19.79v47.59A49.44,49.44,0,0,1,744,603.68l-16.45-8.62a32.92,32.92,0,0,0,4.31-16.64v-7.84a2.83,2.83,0,0,0-.79.59,49.72,49.72,0,0,1-25.65,10.18,43.4,43.4,0,0,1-5.09.2,49.43,49.43,0,0,1-30.75-10.38,48.75,48.75,0,0,1-13.91-16.45,49.94,49.94,0,0,1-5.87-23.7,52.52,52.52,0,0,1,3.91-19.78A53.67,53.67,0,0,1,664.43,495a50.33,50.33,0,0,1,16.26-10.77A45.94,45.94,0,0,1,700.08,480.1Zm30.75,58a30.24,30.24,0,0,0,.78-7.24,29.66,29.66,0,0,0-2.54-12.34,31.45,31.45,0,0,0-6.86-10,35.08,35.08,0,0,0-10-6.86,33.19,33.19,0,0,0-12.34-2.54,29.61,29.61,0,0,0-12.33,2.54,31.23,31.23,0,0,0-10,6.86,34.88,34.88,0,0,0-6.86,10,33.19,33.19,0,0,0-2.54,12.34,29.23,29.23,0,0,0,.78,7.24,31.42,31.42,0,0,0,10,16.45,30.27,30.27,0,0,0,21,7.84,30.65,30.65,0,0,0,21-7.84A27.87,27.87,0,0,0,730.83,538.07Z"/>
      </g>
      <g id="Layer_2-2" data-name="Layer 2">
        <path d="M750,584.88h-18.8a31.06,31.06,0,0,1-61.11,0H651.7a49.25,49.25,0,0,0,49,43.87c25.26,0,46.61-19.19,49.35-43.87Z"/>
        <g>
          <path class="cls-1" d="M843.05,469.52c-.39-.19-.78-.19-1.18-.39h0A2.79,2.79,0,0,0,843.05,469.52Z"/>
          <path class="cls-1" d="M796.63,474.22a4.37,4.37,0,0,0-1.56,1A7.05,7.05,0,0,1,796.63,474.22Z"/>
          <path class="cls-1" d="M793.7,475.79c-.59.39-1,.59-1.57,1A7.1,7.1,0,0,0,793.7,475.79Z"/>
          <path class="cls-1" d="M806.23,470.11l-1.76.59Z"/>
          <path class="cls-1" d="M802.9,471.29a6.78,6.78,0,0,0-1.76.78A6.78,6.78,0,0,1,802.9,471.29Z"/>
          <path class="cls-1" d="M799.77,472.66c-.59.19-1.18.59-1.77.78A6.84,6.84,0,0,1,799.77,472.66Z"/>
          <path class="cls-1" d="M781.55,485.58c.39-.39.79-.78,1.37-1.37A8.85,8.85,0,0,1,781.55,485.58Z"/>
          <path class="cls-1" d="M780.57,486.76c-.39.39-.78,1-1.17,1.37C779.79,487.74,780.18,487.15,780.57,486.76Z"/>
          <path class="cls-1" d="M788,479.71c-.4.39-1,.78-1.38,1.17C787,480.49,787.62,480.1,788,479.71Z"/>
          <path class="cls-1" d="M790.76,477.75a7.1,7.1,0,0,1-1.57,1A4.32,4.32,0,0,0,790.76,477.75Z"/>
          <path class="cls-1" d="M847.75,471.29a6.78,6.78,0,0,1,1.76.78A6.78,6.78,0,0,0,847.75,471.29Z"/>
          <path class="cls-1" d="M851.08,472.66c.59.19,1.17.59,1.76.78A6.78,6.78,0,0,0,851.08,472.66Z"/>
          <path class="cls-1" d="M854.21,474.22a4.32,4.32,0,0,1,1.57,1C855.19,474.81,854.6,474.42,854.21,474.22Z"/>
          <path class="cls-1" d="M844.62,470.11l1.76.59Z"/>
          <path class="cls-1" d="M857.15,475.79c.59.39,1,.59,1.57,1A4.32,4.32,0,0,1,857.15,475.79Z"/>
          <path class="cls-1" d="M807.8,469.52c.39-.19.78-.19,1.17-.39h0A2.7,2.7,0,0,1,807.8,469.52Z"/>
          <path class="cls-1" d="M865.38,482.06c.39.39,1,.78,1.37,1.17C866.36,482.84,865.77,482.45,865.38,482.06Z"/>
          <path class="cls-1" d="M867.92,484.21l1.37,1.37A4.59,4.59,0,0,1,867.92,484.21Z"/>
          <path class="cls-1" d="M862.83,479.71c.39.39,1,.78,1.37,1.17A8.32,8.32,0,0,1,862.83,479.71Z"/>
          <path class="cls-1" d="M860.09,477.75a7.1,7.1,0,0,0,1.57,1A4.32,4.32,0,0,1,860.09,477.75Z"/>
          <path class="cls-1" d="M785.47,482.06c-.39.39-1,.78-1.37,1.17A8.32,8.32,0,0,1,785.47,482.06Z"/>
          <path class="cls-1" d="M840.9,455.62a6.61,6.61,0,0,0-6.66-6.66H816.61a6.61,6.61,0,0,0-6.66,6.66v2.94a68.53,68.53,0,0,1,30.95,0v-2.94Z"/>
          <path d="M811.13,468.55c.58-.2,1.37-.2,2-.4"/>
          <path d="M809,469.13h0c.2,0,.59-.19.79-.19"/>
          <path d="M810,457.77v-2.35a6.61,6.61,0,0,1,6.66-6.66h17.63a6.61,6.61,0,0,1,6.66,6.66v2.94a71.22,71.22,0,0,1,6.85,2,10.15,10.15,0,0,0,.2-2.55v-2.35a13.76,13.76,0,0,0-13.71-13.71H816.61a13.75,13.75,0,0,0-13.71,13.71v2.35a10.93,10.93,0,0,0,.2,2.55,71.22,71.22,0,0,1,6.85-2Z"/>
          <path class="cls-1" d="M825.42,588.6a60.81,60.81,0,0,0,54.06-33.1H771.17A60.76,60.76,0,0,0,825.42,588.6Z"/>
          <path d="M780.57,486.76c.4-.39.79-.78,1.18-1.18l1.37-1.37,1.17-1.17c.4-.39,1-.79,1.38-1.18a5.34,5.34,0,0,1,1.17-1c.39-.39,1-.78,1.37-1.17a8.54,8.54,0,0,1,1.37-1,7.1,7.1,0,0,1,1.57-1,8.11,8.11,0,0,1,1.37-1c.59-.39,1-.59,1.57-1,.39-.19,1-.59,1.37-.78.59-.39,1-.59,1.56-1,.4-.2,1-.59,1.38-.78.58-.2,1.17-.59,1.76-.79.39-.19,1-.39,1.37-.59a6.78,6.78,0,0,0,1.76-.78c.59-.19,1-.39,1.57-.59l1.76-.58c.59-.2,1-.4,1.57-.59.39-.2.78-.2,1.17-.39a14.57,14.57,0,0,1-5.87-8.82,70.9,70.9,0,0,0-33.1,23.11,5.08,5.08,0,0,0,4.11,8.23,5.51,5.51,0,0,0,4.12-2l.39-.39c.39-.39.58-.78,1-1.18C779.79,487.74,780.18,487.15,780.57,486.76Z"/>
          <path d="M880.85,483.43a70.83,70.83,0,0,0-33.1-23.11,12.65,12.65,0,0,1-5.88,8.81c.4.2.79.2,1.18.39.59.2,1,.4,1.57.59l1.76.59c.59.2,1,.39,1.57.59a6.93,6.93,0,0,1,1.76.78c.39.2,1,.39,1.37.59.59.19,1.17.59,1.76.78.39.2,1,.59,1.37.78a4.32,4.32,0,0,1,1.57,1c.39.2,1,.59,1.37.79.59.39,1,.59,1.57,1a5.55,5.55,0,0,1,1.37,1,7.1,7.1,0,0,0,1.57,1,8.11,8.11,0,0,0,1.37,1c.39.4,1,.79,1.37,1.18s.78.59,1.17,1,1,.78,1.37,1.17l1.18,1.18,1.37,1.37,1.17,1.17c.4.4.79,1,1.18,1.38a5.34,5.34,0,0,1,1,1.17l.39.39a5.5,5.5,0,0,0,4.11,2A5.22,5.22,0,0,0,880.85,483.43Z"/>
          <path d="M810,458.36a6.62,6.62,0,0,0,6.66,6.07h17.63c3.52.33,7-2.59,7.24-5.92a71.75,71.75,0,0,0-16.06-1.91A97.74,97.74,0,0,0,810,458.36Z"/>
          <path d="M841.48,468.94c.2,0,.59.19.79.19a14.57,14.57,0,0,0,5.87-8.81,71.22,71.22,0,0,0-6.85-2,6.62,6.62,0,0,1-6.66,6.07H817a7.17,7.17,0,0,1-7-6.07,63.38,63.38,0,0,0-6.46,1.76,11.46,11.46,0,0,0,5.48,9c.2,0,.59-.19.79-.19.58-.2,1-.2,1.56-.39s1.37-.2,2-.4,1-.19,1.57-.39c.78-.19,1.37-.19,2.15-.39.39,0,1-.2,1.37-.2.79,0,1.57-.19,2.35-.19a2.46,2.46,0,0,0,1.18-.2c1.17,0,2.35-.19,3.72-.19a25.75,25.75,0,0,1,3.72.19,2.48,2.48,0,0,1,1.18.2c.78,0,1.56.19,2.35.19.39,0,1,.2,1.37.2.78.2,1.37.2,2.15.39a4.76,4.76,0,0,1,1.57.39"/>
          <path d="M865.38,481.86a4.68,4.68,0,0,1-1.18-1"/>
          <path class="cls-2" d="M843.05,469.52c.59.2,1,.4,1.57.59C844,469.92,843.64,469.72,843.05,469.52Z"/>
          <path d="M848,471.29a13.25,13.25,0,0,1-1.57-.59"/>
          <path d="M779.2,488.13a5.06,5.06,0,0,1-1,1.18"/>
          <path d="M861.46,478.73a8.11,8.11,0,0,0,1.37,1"/>
          <path d="M857.15,475.79a4.79,4.79,0,0,1-1.37-.78"/>
          <path d="M850.88,472.46a2.55,2.55,0,0,1-1.37-.59"/>
          <path d="M860.09,477.75a8.11,8.11,0,0,1-1.37-1"/>
          <path d="M788,479.71c.39-.2.78-.59,1.37-1"/>
          <path d="M785.47,481.86a4.83,4.83,0,0,0,1.17-1"/>
          <path d="M793.7,475.79a4.93,4.93,0,0,0,1.37-.78"/>
          <path d="M798,473.44c-.39.2-1,.59-1.37.78"/>
          <path d="M784.1,483a6.18,6.18,0,0,1-1.18,1.17"/>
          <path d="M780.38,486.76a6.18,6.18,0,0,0,1.17-1.18"/>
          <path d="M790.76,477.75c.39-.39,1-.59,1.37-1"/>
          <path class="cls-2" d="M807.8,469.52c-.59.2-1,.4-1.57.59C806.82,469.92,807.21,469.72,807.8,469.52Z"/>
          <path class="cls-2" d="M804.47,470.7c-.59.2-1,.39-1.57.59C803.49,471.09,803.88,470.9,804.47,470.7Z"/>
          <path d="M799.77,472.46a2.08,2.08,0,0,0,1.37-.59"/>
          <path d="M811.13,468.55a4.76,4.76,0,0,1-1.57.39"/>
          <path d="M814.65,467.76a4.53,4.53,0,0,1-1.57.39"/>
          <path d="M825.42,475.79a52,52,0,0,0-52.09,52.1c0,29,30.75,107.13,52.09,107.71s52.1-78.92,52.1-107.71A51.83,51.83,0,0,0,825.42,475.79Zm0,86.37A32.12,32.12,0,1,1,857.54,530,32.12,32.12,0,0,1,825.42,562.16Z"/>
        </g>
      </g>
    </g>
  </g>
</svg>
