<svg xmlns="http://www.w3.org/2000/svg" viewBox="0 0 1080 1080">
  <defs>
    <style>
      .cls-1 {
        fill: #189428;
      }
    </style>
  </defs>
  <title>Logotipo-Verde</title>
  <g id="Layer_5" data-name="Layer 5">
    <g id="Layer_3-2" data-name="Layer 3">
      <g>
        <path class="cls-1" d="M250.14,503.32a52.07,52.07,0,0,1,19.7,3.9A53.28,53.28,0,0,1,286,517.94a50,50,0,0,1,10.73,16.19,52.26,52.26,0,0,1,3.9,19.7v47.38H281.73v-7.8a52.87,52.87,0,0,1-14.43,8.19,50,50,0,0,1-17,2.93,52.26,52.26,0,0,1-19.7-3.9,53.35,53.35,0,0,1-16.19-10.73,49.85,49.85,0,0,1-10.72-16.18,51.71,51.71,0,0,1,0-39.4,53.28,53.28,0,0,1,10.72-16.18,50.08,50.08,0,0,1,16.19-10.73A47.94,47.94,0,0,1,250.14,503.32Zm0,82.1a29.46,29.46,0,0,0,12.29-2.54,31.29,31.29,0,0,0,9.94-6.82,30.6,30.6,0,0,0,6.63-9.95,31,31,0,0,0,0-24.57,31.81,31.81,0,0,0-6.63-9.95,34.71,34.71,0,0,0-9.94-6.82,33,33,0,0,0-12.29-2.54,31.2,31.2,0,0,0-22.23,9.36,35.14,35.14,0,0,0-6.83,9.95,33,33,0,0,0-2.53,12.29,29.57,29.57,0,0,0,2.53,12.28,31.36,31.36,0,0,0,6.83,9.95,34.76,34.76,0,0,0,10,6.82A29.42,29.42,0,0,0,250.14,585.42Zm24.57-97.9-5.46,9.56-18.91-10.92-18.92,10.92L226,487.52l11.9-8.58,12.67-9.16,12.68,9.16Z"/>
        <path class="cls-1" d="M500.73,601.21H481.81V553.83a29.61,29.61,0,0,0-2.53-12.29,31.31,31.31,0,0,0-6.83-9.95,34.71,34.71,0,0,0-9.94-6.82,33,33,0,0,0-12.29-2.54,32.29,32.29,0,0,0-14.62,3.51,30.21,30.21,0,0,0-10.92,9.56,49.67,49.67,0,0,1,3.51,18.53v47.38H409.27V553.83a30.11,30.11,0,0,0-6-18.53,32,32,0,0,0-10.92-9.56,31.12,31.12,0,0,0-14.62-3.51,31.15,31.15,0,0,0-22.23,9.36,34.93,34.93,0,0,0-6.83,9.95,33,33,0,0,0-2.53,12.29v47.38H327.17V553.83a52.26,52.26,0,0,1,3.9-19.7,53.23,53.23,0,0,1,10.73-16.19A49.85,49.85,0,0,1,358,507.22a52.07,52.07,0,0,1,19.7-3.9,50.64,50.64,0,0,1,20.08,4.09A49.6,49.6,0,0,1,414,518.72a51.68,51.68,0,0,1,16.19-11.31,50.64,50.64,0,0,1,20.08-4.09,52.07,52.07,0,0,1,19.7,3.9,53.28,53.28,0,0,1,16.18,10.72,50,50,0,0,1,10.73,16.19,52.26,52.26,0,0,1,3.9,19.7Z"/>
        <path class="cls-1" d="M574.64,503.32a52.06,52.06,0,0,1,19.69,3.9,53.2,53.2,0,0,1,16.19,10.72,50,50,0,0,1,10.73,16.19,52.26,52.26,0,0,1,3.9,19.7v47.38H606.23v-7.8a53.16,53.16,0,0,1-14.43,8.19,50.1,50.1,0,0,1-17,2.93,52.25,52.25,0,0,1-19.69-3.9A53.23,53.23,0,0,1,539,589.9a49.85,49.85,0,0,1-10.72-16.18,51.71,51.71,0,0,1,0-39.4A53.28,53.28,0,0,1,539,518.14a50,50,0,0,1,16.19-10.73A46.59,46.59,0,0,1,574.64,503.32Zm0,82.1a29.42,29.42,0,0,0,12.28-2.54,31.33,31.33,0,0,0,10-6.82,30.76,30.76,0,0,0,6.63-9.95,31.09,31.09,0,0,0,0-24.57,31.81,31.81,0,0,0-6.63-9.95,34.76,34.76,0,0,0-10-6.82,32.93,32.93,0,0,0-12.28-2.54,31.15,31.15,0,0,0-22.23,9.36,34.93,34.93,0,0,0-6.83,9.95,33,33,0,0,0-2.53,12.29,29.57,29.57,0,0,0,2.53,12.28,31.2,31.2,0,0,0,6.83,9.95,34.71,34.71,0,0,0,9.94,6.82A28.24,28.24,0,0,0,574.64,585.42Z"/>
        <path class="cls-1" d="M698.86,503.32a52.15,52.15,0,0,1,19.7,3.9,53.28,53.28,0,0,1,16.18,10.72,50,50,0,0,1,10.73,16.19,52.26,52.26,0,0,1,3.9,19.7v47.38a49.19,49.19,0,0,1-6.83,25.16l-16.38-8.58a32.81,32.81,0,0,0,4.29-16.58v-7.8a2.77,2.77,0,0,0-.78.59,49.63,49.63,0,0,1-25.55,10.14,45.14,45.14,0,0,1-5.07.19,50.15,50.15,0,0,1-44.46-26.71,49.76,49.76,0,0,1-5.85-23.6,52.34,52.34,0,0,1,3.9-19.7,53.31,53.31,0,0,1,10.73-16.18,50,50,0,0,1,16.18-10.73A45.72,45.72,0,0,1,698.86,503.32ZM729.48,561a30.51,30.51,0,0,0,.78-7.21,29.46,29.46,0,0,0-2.54-12.29,31.29,31.29,0,0,0-6.82-9.94,34.73,34.73,0,0,0-9.95-6.83,33,33,0,0,0-12.29-2.54,29.42,29.42,0,0,0-12.28,2.54,31.2,31.2,0,0,0-10,6.83,34.71,34.71,0,0,0-6.82,9.94,33,33,0,0,0-2.54,12.29,29.47,29.47,0,0,0,.78,7.21,31.23,31.23,0,0,0,9.95,16.38,30.14,30.14,0,0,0,20.86,7.8,30.5,30.5,0,0,0,20.87-7.8A27.77,27.77,0,0,0,729.48,561Z"/>
      </g>
      <g id="Layer_2-2" data-name="Layer 2">
        <path class="cls-1" d="M748.59,607.65H729.87a30.93,30.93,0,0,1-60.85,0H650.69a49,49,0,0,0,48.75,43.68c25.16,0,46.42-19.11,49.15-43.68Z"/>
        <g>
          <path class="cls-1" d="M841.22,492.79c-.39-.2-.78-.2-1.17-.39h0A2.84,2.84,0,0,0,841.22,492.79Z"/>
          <path class="cls-1" d="M795,497.47a4.13,4.13,0,0,0-1.56,1A6.45,6.45,0,0,1,795,497.47Z"/>
          <path class="cls-1" d="M792.07,499c-.58.39-1,.58-1.56,1A6.45,6.45,0,0,0,792.07,499Z"/>
          <path class="cls-1" d="M804.55,493.37l-1.75.59Z"/>
          <path class="cls-1" d="M801.24,494.54a7.14,7.14,0,0,0-1.76.78A7.14,7.14,0,0,1,801.24,494.54Z"/>
          <path class="cls-1" d="M798.12,495.91c-.59.19-1.17.58-1.76.78A6.78,6.78,0,0,1,798.12,495.91Z"/>
          <path class="cls-1" d="M780,508.78l1.37-1.37A8.85,8.85,0,0,1,780,508.78Z"/>
          <path class="cls-1" d="M779,510c-.39.39-.78,1-1.17,1.36C778.23,510.92,778.62,510.34,779,510Z"/>
          <path class="cls-1" d="M786.42,502.93c-.39.39-1,.78-1.37,1.17C785.44,503.71,786,503.32,786.42,502.93Z"/>
          <path class="cls-1" d="M789.15,501a6.85,6.85,0,0,1-1.56,1A4.21,4.21,0,0,0,789.15,501Z"/>
          <path class="cls-1" d="M845.9,494.54a7.08,7.08,0,0,1,1.75.78A7.08,7.08,0,0,0,845.9,494.54Z"/>
          <path class="cls-1" d="M849.21,495.91c.59.19,1.17.58,1.76.78A6.78,6.78,0,0,0,849.21,495.91Z"/>
          <path class="cls-1" d="M852.33,497.47a4.13,4.13,0,0,1,1.56,1A16,16,0,0,0,852.33,497.47Z"/>
          <path class="cls-1" d="M842.78,493.37l1.75.59Z"/>
          <path class="cls-1" d="M855.26,499c.58.39,1,.58,1.56,1A4.13,4.13,0,0,1,855.26,499Z"/>
          <path class="cls-1" d="M806.11,492.79c.39-.2.78-.2,1.17-.39h0A2.84,2.84,0,0,1,806.11,492.79Z"/>
          <path class="cls-1" d="M863.45,505.27c.39.39,1,.78,1.36,1.17C864.42,506.05,863.84,505.66,863.45,505.27Z"/>
          <path class="cls-1" d="M866,507.41l1.37,1.37A4.48,4.48,0,0,1,866,507.41Z"/>
          <path class="cls-1" d="M860.91,502.93c.39.39,1,.78,1.37,1.17A8.32,8.32,0,0,1,860.91,502.93Z"/>
          <path class="cls-1" d="M858.18,501a6.85,6.85,0,0,0,1.56,1A4.21,4.21,0,0,1,858.18,501Z"/>
          <path class="cls-1" d="M783.88,505.27c-.39.39-1,.78-1.36,1.17A8.65,8.65,0,0,1,783.88,505.27Z"/>
          <path class="cls-1" d="M809.43,491.81c.58-.19,1.36-.19,2-.39"/>
          <path class="cls-1" d="M807.28,492.4h0c.2,0,.59-.2.78-.2"/>
          <path class="cls-1" d="M808.26,481.09v-2.34a6.57,6.57,0,0,1,6.63-6.63h17.55a6.57,6.57,0,0,1,6.63,6.63v2.92c2.34.59,4.68,1.17,6.83,1.95a10.54,10.54,0,0,0,.19-2.53v-2.34a13.69,13.69,0,0,0-13.65-13.65H814.89a13.69,13.69,0,0,0-13.65,13.65v2.34a11.36,11.36,0,0,0,.19,2.53c2.15-.78,4.49-1.36,6.83-1.95Z"/>
          <path class="cls-1" d="M779,510l1.17-1.17,1.36-1.37,1.17-1.17c.39-.39,1-.78,1.37-1.17a5,5,0,0,1,1.17-1c.39-.39,1-.78,1.36-1.17a8.11,8.11,0,0,1,1.37-1,6.45,6.45,0,0,1,1.56-1,8.41,8.41,0,0,1,1.36-1c.59-.39,1-.58,1.56-1,.39-.2,1-.59,1.37-.78.58-.39,1-.59,1.56-1,.39-.19,1-.58,1.36-.78.59-.19,1.17-.58,1.76-.78.39-.19,1-.39,1.36-.58a7.14,7.14,0,0,0,1.76-.78c.58-.2,1-.39,1.56-.59l1.75-.58c.59-.2,1-.39,1.56-.59.39-.19.78-.19,1.17-.39a14.5,14.5,0,0,1-5.85-8.77,70.52,70.52,0,0,0-33,23,5.05,5.05,0,0,0,4.09,8.19,5.51,5.51,0,0,0,4.1-2l.39-.39c.39-.39.58-.78,1-1.17C778.23,510.92,778.62,510.34,779,510Z"/>
          <path class="cls-1" d="M878.85,506.63a70.52,70.52,0,0,0-33-23,12.62,12.62,0,0,1-5.85,8.78c.39.19.78.19,1.17.39.58.19,1,.39,1.56.58l1.75.59c.59.19,1,.39,1.56.58a7.14,7.14,0,0,1,1.76.78c.39.2,1,.39,1.36.59.59.19,1.17.58,1.76.78.39.19,1,.58,1.36.78a4.13,4.13,0,0,1,1.56,1c.39.2,1,.59,1.37.78.58.39,1,.59,1.56,1a5.73,5.73,0,0,1,1.36,1,7.29,7.29,0,0,0,1.56,1,8.11,8.11,0,0,0,1.37,1c.39.39,1,.78,1.36,1.17s.78.59,1.17,1,1,.78,1.37,1.17l1.17,1.17,1.36,1.36,1.17,1.17c.39.39.78,1,1.17,1.37a5.34,5.34,0,0,1,1,1.17l.39.39a5.47,5.47,0,0,0,4.09,1.95A5.2,5.2,0,0,0,878.85,506.63Z"/>
          <path class="cls-1" d="M808.26,481.67a6.6,6.6,0,0,0,6.63,6.05h17.55c3.51.32,7-2.59,7.22-5.9a71.84,71.84,0,0,0-16-1.9A97.89,97.89,0,0,0,808.26,481.67Z"/>
          <path class="cls-1" d="M839.66,492.2c.19,0,.58.2.78.2a14.52,14.52,0,0,0,5.85-8.78c-2.15-.78-4.49-1.36-6.83-1.95a6.6,6.6,0,0,1-6.63,6.05H815.28a7.13,7.13,0,0,1-7-6.05,63.69,63.69,0,0,0-6.44,1.76,11.44,11.44,0,0,0,5.46,9c.2,0,.59-.2.78-.2.59-.19,1-.19,1.56-.39s1.37-.19,2-.39,1-.19,1.56-.39c.78-.19,1.37-.19,2.15-.39.39,0,1-.19,1.37-.19.78,0,1.56-.2,2.34-.2a2.53,2.53,0,0,0,1.17-.19c1.17,0,2.34-.2,3.7-.2a24.34,24.34,0,0,1,3.71.2,2.53,2.53,0,0,1,1.17.19c.78,0,1.56.2,2.34.2.39,0,1,.19,1.36.19.78.2,1.37.2,2.15.39a4.77,4.77,0,0,1,1.56.39"/>
          <path class="cls-1" d="M863.45,505.07a5,5,0,0,1-1.17-1"/>
          <path class="cls-1" d="M841.22,492.79c.58.19,1,.39,1.56.58C842.19,493.18,841.8,493,841.22,492.79Z"/>
          <path class="cls-1" d="M846.09,494.54a13.87,13.87,0,0,1-1.56-.58"/>
          <path class="cls-1" d="M777.64,511.31a5,5,0,0,1-1,1.17"/>
          <path class="cls-1" d="M859.55,502a8.41,8.41,0,0,0,1.36,1"/>
          <path class="cls-1" d="M855.26,499a5,5,0,0,1-1.37-.78"/>
          <path class="cls-1" d="M849,495.71a2.6,2.6,0,0,1-1.37-.58"/>
          <path class="cls-1" d="M858.18,501a8.41,8.41,0,0,1-1.36-1"/>
          <path class="cls-1" d="M786.42,502.93c.39-.2.78-.59,1.36-1"/>
          <path class="cls-1" d="M783.88,505.07a5,5,0,0,0,1.17-1"/>
          <path class="cls-1" d="M792.07,499a5,5,0,0,0,1.37-.78"/>
          <path class="cls-1" d="M796.36,496.69c-.39.19-1,.58-1.36.78"/>
          <path class="cls-1" d="M782.52,506.24a6.45,6.45,0,0,1-1.17,1.17"/>
          <path class="cls-1" d="M778.81,510a6.45,6.45,0,0,0,1.17-1.17"/>
          <path class="cls-1" d="M789.15,501c.39-.39,1-.59,1.36-1"/>
          <path class="cls-1" d="M806.11,492.79c-.58.19-1,.39-1.56.58C805.14,493.18,805.53,493,806.11,492.79Z"/>
          <path class="cls-1" d="M802.8,494c-.59.19-1,.39-1.56.58C801.82,494.35,802.21,494.15,802.8,494Z"/>
          <path class="cls-1" d="M798.12,495.71a2.09,2.09,0,0,0,1.36-.58"/>
          <path class="cls-1" d="M809.43,491.81a4.53,4.53,0,0,1-1.56.39"/>
          <path class="cls-1" d="M812.94,491a4.53,4.53,0,0,1-1.56.39"/>
          <path class="cls-1" d="M823.67,499a51.72,51.72,0,0,0-51.88,51.87c0,28.86,30.62,106.67,51.88,107.26s51.87-78.59,51.87-107.26A51.6,51.6,0,0,0,823.67,499Zm0,86a32,32,0,1,1,32-32A32,32,0,0,1,823.67,585Z"/>
        </g>
      </g>
    </g>
  </g>
</svg>
