<svg id="Layer_1" data-name="Layer 1" xmlns="http://www.w3.org/2000/svg" viewBox="0 0 1080 1080">
  <defs>
    <style>
      .cls-1 {
        fill: none;
      }

      .cls-2 {
        fill: #189428;
      }
    </style>
  </defs>
  <title>Logotipo</title>
  <g id="Layer_3" data-name="Layer 3">
    <g>
      <path d="M248.89,469a52.38,52.38,0,0,1,19.76,3.91A53.62,53.62,0,0,1,284.9,483.7a49.84,49.84,0,0,1,10.76,16.24,52.25,52.25,0,0,1,3.92,19.77v47.55h-19v-7.82a53.38,53.38,0,0,1-14.48,8.22,50.4,50.4,0,0,1-17,2.93,52.38,52.38,0,0,1-19.76-3.91,53.62,53.62,0,0,1-16.25-10.77,50,50,0,0,1-10.76-16.24,51.91,51.91,0,0,1,0-39.53,53.41,53.41,0,0,1,10.76-16.25,50.15,50.15,0,0,1,16.25-10.76A48.08,48.08,0,0,1,248.89,469Zm0,82.39a29.68,29.68,0,0,0,12.33-2.54,31.55,31.55,0,0,0,10-6.85,30.89,30.89,0,0,0,6.65-10,31.08,31.08,0,0,0,0-24.66,31.71,31.71,0,0,0-6.65-10,34.8,34.8,0,0,0-10-6.85A33,33,0,0,0,248.89,488a31.26,31.26,0,0,0-22.31,9.4,34.66,34.66,0,0,0-6.85,10,33,33,0,0,0-2.55,12.33A29.69,29.69,0,0,0,219.73,532a31.33,31.33,0,0,0,6.85,10,34.86,34.86,0,0,0,10,6.85A29.61,29.61,0,0,0,248.89,551.41Zm24.66-98.24-5.48,9.59-19-11-19,11-5.48-9.59,11.94-8.61,12.72-9.2,12.72,9.2Z"/>
      <path d="M500.37,567.26h-19V519.71a29.47,29.47,0,0,0-2.55-12.33,31.11,31.11,0,0,0-6.85-10,34.66,34.66,0,0,0-10-6.85A33,33,0,0,0,449.68,488,32.5,32.5,0,0,0,435,491.52a30.34,30.34,0,0,0-11,9.59,49.88,49.88,0,0,1,3.52,18.6v47.55h-19V519.71a30.27,30.27,0,0,0-6.07-18.6,32.26,32.26,0,0,0-11-9.59A31.34,31.34,0,0,0,376.88,488a29.53,29.53,0,0,0-12.33,2.55,29.18,29.18,0,0,0-10,6.85,34.66,34.66,0,0,0-6.85,10,32.94,32.94,0,0,0-2.54,12.33v47.55h-19V519.71a52.25,52.25,0,0,1,3.92-19.77,53.24,53.24,0,0,1,10.76-16.24,50.24,50.24,0,0,1,16.24-10.77A52.47,52.47,0,0,1,376.88,469,50.87,50.87,0,0,1,397,473.13a49.66,49.66,0,0,1,16.24,11.35,51.89,51.89,0,0,1,16.25-11.35A50.83,50.83,0,0,1,449.68,469a52.43,52.43,0,0,1,19.77,3.91,53.46,53.46,0,0,1,16.24,10.77,50,50,0,0,1,10.77,16.24,52.43,52.43,0,0,1,3.91,19.77Z"/>
      <path d="M574.55,469a52.38,52.38,0,0,1,19.76,3.91,53.62,53.62,0,0,1,16.25,10.77,50,50,0,0,1,10.76,16.24,52.43,52.43,0,0,1,3.91,19.77v47.55h-19v-7.82a53.38,53.38,0,0,1-14.48,8.22,50.44,50.44,0,0,1-17,2.93A52.47,52.47,0,0,1,555,566.68a53.7,53.7,0,0,1-16.24-10.77A49.84,49.84,0,0,1,528,539.67a51.79,51.79,0,0,1,0-39.53,53.41,53.41,0,0,1,10.76-16.25A50.21,50.21,0,0,1,555,473.13,46.81,46.81,0,0,1,574.55,469Zm0,82.39a29.68,29.68,0,0,0,12.33-2.54,31.66,31.66,0,0,0,10-6.85,31,31,0,0,0,6.65-10,31.2,31.2,0,0,0,0-24.66,31.88,31.88,0,0,0-6.65-10,34.94,34.94,0,0,0-10-6.85A33,33,0,0,0,574.55,488a31.31,31.31,0,0,0-22.32,9.4,34.83,34.83,0,0,0-6.84,10,33,33,0,0,0-2.55,12.33A29.53,29.53,0,0,0,545.39,532a31.46,31.46,0,0,0,6.84,10,35,35,0,0,0,10,6.85A28.36,28.36,0,0,0,574.55,551.41Z"/>
      <path d="M699.21,469A52.43,52.43,0,0,1,719,472.93a53.7,53.7,0,0,1,16.24,10.77A50,50,0,0,1,746,499.94a52.43,52.43,0,0,1,3.91,19.77v47.55a49.38,49.38,0,0,1-6.85,25.25l-16.44-8.61a32.92,32.92,0,0,0,4.31-16.64v-7.82a2.69,2.69,0,0,0-.79.58A49.78,49.78,0,0,1,704.5,570.2a45.67,45.67,0,0,1-5.09.19A49.36,49.36,0,0,1,668.68,560a48.66,48.66,0,0,1-13.89-16.44,49.84,49.84,0,0,1-5.88-23.68,52.2,52.2,0,0,1,3.92-19.76,53.41,53.41,0,0,1,10.76-16.25,50.15,50.15,0,0,1,16.25-10.76A45.85,45.85,0,0,1,699.21,469ZM729.94,527a30.76,30.76,0,0,0,.78-7.24,29.61,29.61,0,0,0-2.54-12.33,31.43,31.43,0,0,0-6.85-10,34.94,34.94,0,0,0-10-6.85A33,33,0,0,0,699,488a29.62,29.62,0,0,0-12.33,2.55,31.26,31.26,0,0,0-10,6.85,34.83,34.83,0,0,0-6.84,10,33,33,0,0,0-2.55,12.33,29.71,29.71,0,0,0,.78,7.24,31.44,31.44,0,0,0,10,16.44A30.33,30.33,0,0,0,699,551.22,30.65,30.65,0,0,0,720,543.39,27.91,27.91,0,0,0,729.94,527Z"/>
    </g>
    <g id="Layer_2" data-name="Layer 2">
      <path d="M749.12,573.72H730.33a31,31,0,0,1-61.06,0h-18.4a49.21,49.21,0,0,0,48.93,43.84c25.24,0,46.58-19.18,49.32-43.84Z"/>
      <g>
        <path class="cls-1" d="M842.08,458.45c-.39-.2-.79-.2-1.18-.39h0A2.88,2.88,0,0,0,842.08,458.45Z"/>
        <path class="cls-1" d="M795.69,463.15a4.11,4.11,0,0,0-1.56,1A6.58,6.58,0,0,1,795.69,463.15Z"/>
        <path class="cls-1" d="M792.76,464.71c-.59.39-1,.59-1.57,1A6.75,6.75,0,0,0,792.76,464.71Z"/>
        <path class="cls-1" d="M805.28,459l-1.76.58Z"/>
        <path class="cls-1" d="M802,460.21a7,7,0,0,0-1.76.78A7,7,0,0,1,802,460.21Z"/>
        <path class="cls-1" d="M798.83,461.58c-.59.2-1.18.59-1.77.78A7.2,7.2,0,0,1,798.83,461.58Z"/>
        <path class="cls-1" d="M780.63,474.5l1.37-1.37A9.31,9.31,0,0,1,780.63,474.5Z"/>
        <path class="cls-1" d="M779.65,475.67c-.39.39-.79,1-1.18,1.37C778.86,476.65,779.26,476.06,779.65,475.67Z"/>
        <path class="cls-1" d="M787.08,468.63c-.39.39-1,.78-1.37,1.17C786.11,469.41,786.69,469,787.08,468.63Z"/>
        <path class="cls-1" d="M789.82,466.67a6.83,6.83,0,0,1-1.56,1A4.28,4.28,0,0,0,789.82,466.67Z"/>
        <path class="cls-1" d="M846.77,460.21a7.2,7.2,0,0,1,1.77.78A7.2,7.2,0,0,0,846.77,460.21Z"/>
        <path class="cls-1" d="M850.1,461.58c.59.2,1.18.59,1.76.78A7,7,0,0,0,850.1,461.58Z"/>
        <path class="cls-1" d="M853.23,463.15a4.07,4.07,0,0,1,1.57,1A15.61,15.61,0,0,0,853.23,463.15Z"/>
        <path class="cls-1" d="M843.64,459l1.76.58Z"/>
        <path class="cls-1" d="M856.17,464.71c.59.39,1,.59,1.56,1A4.23,4.23,0,0,1,856.17,464.71Z"/>
        <path class="cls-1" d="M806.85,458.45c.39-.2.78-.2,1.17-.39h0A2.84,2.84,0,0,1,806.85,458.45Z"/>
        <path class="cls-1" d="M864.39,471c.39.39,1,.78,1.37,1.17C865.37,471.76,864.78,471.37,864.39,471Z"/>
        <path class="cls-1" d="M869.28,475.67c.39.39.78,1,1.18,1.37C870.06,476.65,869.67,476.06,869.28,475.67Z"/>
        <path class="cls-1" d="M866.93,473.13c.39.39.79.78,1.37,1.37A4.59,4.59,0,0,1,866.93,473.13Z"/>
        <path class="cls-1" d="M861.84,468.63c.4.39,1,.78,1.37,1.17A9.25,9.25,0,0,1,861.84,468.63Z"/>
        <path class="cls-1" d="M859.1,466.67a7.1,7.1,0,0,0,1.57,1A4.41,4.41,0,0,1,859.1,466.67Z"/>
        <path class="cls-1" d="M784.54,471c-.39.39-1,.78-1.37,1.17A8.32,8.32,0,0,1,784.54,471Z"/>
        <path class="cls-1" d="M839.92,444.56a6.6,6.6,0,0,0-6.65-6.66H815.66a6.61,6.61,0,0,0-6.66,6.66v2.93a68.78,68.78,0,0,1,30.92,0v-2.93Z"/>
        <path class="cls-2" d="M836.79,457.08c.59.2,1.37.2,2,.39A5.73,5.73,0,0,1,836.79,457.08Z"/>
        <path class="cls-2" d="M829.36,456.1c.78,0,1.56.2,2.35.2C830.92,456.3,830.14,456.1,829.36,456.1Z"/>
        <path class="cls-2" d="M833.08,456.49c.78.2,1.37.2,2.15.39C834.45,456.69,833.86,456.69,833.08,456.49Z"/>
        <path class="cls-2" d="M840.9,458.25h0c-.19,0-.39-.19-.78-.19C840.51,458.06,840.71,458.06,840.9,458.25Z"/>
        <path class="cls-2" d="M810.18,457.47c.58-.19,1.37-.19,2-.39A6.76,6.76,0,0,1,810.18,457.47Z"/>
        <path class="cls-2" d="M808,458.06h0c.2,0,.59-.2.79-.2A1.46,1.46,0,0,1,808,458.06Z"/>
        <path class="cls-2" d="M809,446.71v-2.35a6.6,6.6,0,0,1,6.66-6.65h17.61a6.59,6.59,0,0,1,6.65,6.65v2.94a68.45,68.45,0,0,1,6.85,1.95,10.07,10.07,0,0,0,.2-2.54v-2.35a13.74,13.74,0,0,0-13.7-13.7H815.66a13.73,13.73,0,0,0-13.7,13.7v2.35a11.45,11.45,0,0,0,.19,2.54A69.22,69.22,0,0,1,809,447.3Z"/>
        <path class="cls-1" d="M824.46,577.44a60.76,60.76,0,0,0,54-33.07H770.25A60.71,60.71,0,0,0,824.46,577.44Z"/>
        <path class="cls-2" d="M779.65,475.67l1.17-1.17,1.37-1.37,1.18-1.18c.39-.39,1-.78,1.37-1.17a5.34,5.34,0,0,1,1.17-1c.39-.39,1-.78,1.37-1.17a8.11,8.11,0,0,1,1.37-1,7.1,7.1,0,0,1,1.57-1,8.11,8.11,0,0,1,1.37-1c.58-.39,1-.59,1.56-1,.39-.19,1-.58,1.37-.78.59-.39,1-.59,1.57-1,.39-.19,1-.59,1.37-.78.58-.2,1.17-.59,1.76-.78.39-.2,1-.4,1.37-.59a7.31,7.31,0,0,0,1.76-.78c.59-.2,1-.4,1.56-.59l1.77-.59c.58-.19,1-.39,1.56-.59.39-.19.78-.19,1.18-.39a14.54,14.54,0,0,1-5.88-8.8,70.76,70.76,0,0,0-33.07,23.09,5.07,5.07,0,0,0,4.11,8.22,5.49,5.49,0,0,0,4.11-2l.39-.39c.39-.39.59-.78,1-1.17C778.86,476.65,779.26,476.06,779.65,475.67Z"/>
        <path class="cls-2" d="M879.85,472.35a70.83,70.83,0,0,0-33.08-23.1,12.64,12.64,0,0,1-5.87,8.81c.39.19.79.19,1.18.39.58.2,1,.39,1.56.59l1.76.58c.59.2,1,.4,1.57.59a7.14,7.14,0,0,1,1.76.78c.39.2,1,.4,1.37.59.59.2,1.18.59,1.76.78.39.2,1,.59,1.37.79a4.07,4.07,0,0,1,1.57,1c.39.19,1,.58,1.37.78.59.39,1,.59,1.56,1a5.37,5.37,0,0,1,1.37,1,6.69,6.69,0,0,0,1.57,1,7.58,7.58,0,0,0,1.37,1c.39.39,1,.79,1.37,1.18s.78.58,1.17,1,1,.78,1.37,1.17l1.18,1.17c.39.4.78.79,1.37,1.37l1.17,1.18c.39.39.79,1,1.18,1.37a5.34,5.34,0,0,1,1,1.17l.39.39a5.49,5.49,0,0,0,4.11,2A5.21,5.21,0,0,0,879.85,472.35Z"/>
        <path class="cls-2" d="M809,447.29a6.62,6.62,0,0,0,6.66,6.07h17.61c3.52.33,7.05-2.59,7.24-5.92a72.24,72.24,0,0,0-16-1.91A100,100,0,0,0,809,447.29Z"/>
        <path class="cls-2" d="M808,458.06c.2,0,.59-.2.79-.2.58-.19,1-.19,1.56-.39s1.37-.19,2-.39,1-.2,1.57-.39c.78-.2,1.37-.2,2.15-.39.39,0,1-.2,1.37-.2.78,0,1.56-.19,2.35-.19a2.42,2.42,0,0,0,1.17-.2c1.18,0,2.35-.19,3.72-.19a25.75,25.75,0,0,1,3.72.19,2.42,2.42,0,0,1,1.17.2c.79,0,1.57.19,2.35.19.39,0,1,.2,1.37.2.78.19,1.37.19,2.15.39a4.53,4.53,0,0,1,1.57.39c.59.2,1.37.2,2,.39s1,.2,1.56.39c.2,0,.59.2.78.2a14.59,14.59,0,0,0,5.88-8.81c-2.16-.78-4.51-1.37-6.85-2a6.63,6.63,0,0,1-6.66,6.07H816.05a7.17,7.17,0,0,1-7-6.06,59.2,59.2,0,0,0-6.46,1.76A11.48,11.48,0,0,0,808,458.06Z"/>
        <path class="cls-2" d="M851.67,462.36c.39.2,1,.59,1.37.79A3.26,3.26,0,0,0,851.67,462.36Z"/>
        <path class="cls-2" d="M863.21,469.8c.4.39.79.59,1.18,1A5.61,5.61,0,0,1,863.21,469.8Z"/>
        <path class="cls-2" d="M842.08,458.45c.58.2,1,.39,1.56.59C843.06,458.84,842.66,458.65,842.08,458.45Z"/>
        <path class="cls-2" d="M845.4,459.62c.59.2,1,.4,1.57.59A12.25,12.25,0,0,1,845.4,459.62Z"/>
        <path class="cls-2" d="M865.76,472.15l1.17,1.17A6.79,6.79,0,0,0,865.76,472.15Z"/>
        <path class="cls-2" d="M871.43,478.22c-.39-.39-.58-.79-1-1.18A5,5,0,0,1,871.43,478.22Z"/>
        <path class="cls-2" d="M777.3,478.22c.39-.39.59-.79,1-1.18A5.37,5.37,0,0,1,777.3,478.22Z"/>
        <path class="cls-2" d="M860.47,467.65a9,9,0,0,0,1.37,1A3.7,3.7,0,0,1,860.47,467.65Z"/>
        <path class="cls-2" d="M854.8,463.93c.39.2,1,.59,1.37.78A4.79,4.79,0,0,1,854.8,463.93Z"/>
        <path class="cls-2" d="M848.54,460.8c.39.19,1,.39,1.37.59A2.57,2.57,0,0,1,848.54,460.8Z"/>
        <path class="cls-2" d="M857.73,465.69a5.92,5.92,0,0,1,1.37,1A9,9,0,0,1,857.73,465.69Z"/>
        <path class="cls-2" d="M788.45,467.65a8.11,8.11,0,0,1-1.37,1C787.48,468.43,787.87,468,788.45,467.65Z"/>
        <path class="cls-2" d="M785.71,469.8c-.39.39-.78.59-1.17,1A5.34,5.34,0,0,0,785.71,469.8Z"/>
        <path class="cls-2" d="M794.13,463.93c-.39.2-1,.59-1.37.78A4.79,4.79,0,0,0,794.13,463.93Z"/>
        <path class="cls-2" d="M797.06,462.36c-.39.2-1,.59-1.37.79A12.69,12.69,0,0,1,797.06,462.36Z"/>
        <path class="cls-2" d="M782,473.13l1.17-1.18A6.54,6.54,0,0,1,782,473.13Z"/>
        <path class="cls-2" d="M780.63,474.5l-1.18,1.17A6.88,6.88,0,0,0,780.63,474.5Z"/>
        <path class="cls-2" d="M791.19,465.69a6.37,6.37,0,0,0-1.37,1C790.22,466.28,790.8,466.08,791.19,465.69Z"/>
        <path class="cls-2" d="M806.85,458.45c-.59.2-1,.39-1.57.59C805.87,458.84,806.26,458.65,806.85,458.45Z"/>
        <path class="cls-2" d="M868.11,474.5l1.17,1.17Z"/>
        <path class="cls-2" d="M803.52,459.62c-.58.2-1,.4-1.56.59C802.54,460,802.94,459.82,803.52,459.62Z"/>
        <path class="cls-2" d="M800.2,460.8c-.4.19-1,.39-1.37.59A2.15,2.15,0,0,0,800.2,460.8Z"/>
        <path class="cls-2" d="M808.61,457.86c.59-.19,1-.19,1.57-.39A4.53,4.53,0,0,1,808.61,457.86Z"/>
        <path class="cls-2" d="M812.13,457.08c.59-.2,1-.2,1.57-.39A4.76,4.76,0,0,1,812.13,457.08Z"/>
        <path class="cls-2" d="M838.75,457.47c.59.2,1,.2,1.57.39A3.63,3.63,0,0,1,838.75,457.47Z"/>
        <path class="cls-2" d="M835.23,456.88a4.5,4.5,0,0,1,1.56.4A4.5,4.5,0,0,0,835.23,456.88Z"/>
        <path class="cls-2" d="M831.71,456.3c.39,0,1,.19,1.37.19C832.68,456.49,832.1,456.3,831.71,456.3Z"/>
        <path class="cls-2" d="M824.46,464.71a51.91,51.91,0,0,0-52.05,52.06c0,29,30.72,107.05,52.05,107.64s52.06-78.87,52.06-107.64A51.8,51.8,0,0,0,824.46,464.71Zm0,86.31a32.1,32.1,0,1,1,32.1-32.1A32.1,32.1,0,0,1,824.46,551Z"/>
      </g>
    </g>
  </g>
</svg>
