<svg xmlns="http://www.w3.org/2000/svg" viewBox="0 0 1080 1080">
  <defs>
    <style>
      .cls-1 {
        fill: none;
      }

      .cls-2 {
        fill: #189428;
      }
    </style>
  </defs>
  <title>Icone-Preto</title>
  <g id="Layer_4" data-name="Layer 4">
    <g>
      <path class="cls-1" d="M561.53,469.4c-.39-.2-.78-.2-1.16-.39h0A2.76,2.76,0,0,0,561.53,469.4Z"/>
      <path class="cls-1" d="M515.8,474a4,4,0,0,0-1.54,1A6.49,6.49,0,0,1,515.8,474Z"/>
      <path class="cls-1" d="M512.91,475.57c-.58.38-1,.58-1.55,1A6.88,6.88,0,0,0,512.91,475.57Z"/>
      <path class="cls-1" d="M525.26,470l-1.74.58Z"/>
      <path class="cls-1" d="M522,471.13a7,7,0,0,0-1.74.77A7,7,0,0,1,522,471.13Z"/>
      <path class="cls-1" d="M518.89,472.48c-.58.2-1.16.58-1.74.77A7.36,7.36,0,0,1,518.89,472.48Z"/>
      <path class="cls-1" d="M501,485.22l1.35-1.36A9.65,9.65,0,0,1,501,485.22Z"/>
      <path class="cls-1" d="M500,486.37c-.38.39-.77,1-1.16,1.35C499.21,487.34,499.6,486.76,500,486.37Z"/>
      <path class="cls-1" d="M507.31,479.43c-.38.38-1,.77-1.35,1.16C506.35,480.2,506.93,479.81,507.31,479.43Z"/>
      <path class="cls-1" d="M510,477.5a6.61,6.61,0,0,1-1.54,1A4.16,4.16,0,0,0,510,477.5Z"/>
      <path class="cls-1" d="M566.16,471.13a7.07,7.07,0,0,1,1.73.77A7.07,7.07,0,0,0,566.16,471.13Z"/>
      <path class="cls-1" d="M569.44,472.48c.57.2,1.15.58,1.73.77A7.47,7.47,0,0,0,569.44,472.48Z"/>
      <path class="cls-1" d="M572.52,474a4.15,4.15,0,0,1,1.55,1A15.65,15.65,0,0,0,572.52,474Z"/>
      <path class="cls-1" d="M563.07,470l1.74.58Z"/>
      <path class="cls-1" d="M575.42,475.57c.58.38,1,.58,1.54,1A4.16,4.16,0,0,1,575.42,475.57Z"/>
      <path class="cls-1" d="M526.8,469.4c.38-.2.77-.2,1.16-.39h0A2.85,2.85,0,0,1,526.8,469.4Z"/>
      <path class="cls-1" d="M583.52,481.74c.39.39,1,.77,1.35,1.16C584.48,482.51,583.91,482.13,583.52,481.74Z"/>
      <path class="cls-1" d="M586,483.86l1.35,1.36A4.49,4.49,0,0,1,586,483.86Z"/>
      <path class="cls-1" d="M581,479.43c.39.38,1,.77,1.35,1.16A9.07,9.07,0,0,1,581,479.43Z"/>
      <path class="cls-1" d="M578.31,477.5a6.83,6.83,0,0,0,1.54,1A4.24,4.24,0,0,1,578.31,477.5Z"/>
      <path class="cls-1" d="M504.81,481.74c-.39.39-1,.77-1.36,1.16A8.63,8.63,0,0,1,504.81,481.74Z"/>
      <path class="cls-1" d="M559.4,455.7a6.5,6.5,0,0,0-6.56-6.56H535.48a6.5,6.5,0,0,0-6.56,6.56v2.89a68,68,0,0,1,30.48,0V455.7Z"/>
      <path d="M530.08,468.43c.58-.19,1.35-.19,1.93-.38"/>
      <path d="M528,469h0c.19,0,.58-.19.77-.19"/>
      <path d="M528.92,457.82V455.5a6.5,6.5,0,0,1,6.56-6.55h17.36a6.5,6.5,0,0,1,6.56,6.55v2.9a70.17,70.17,0,0,1,6.76,1.93,10.37,10.37,0,0,0,.19-2.51V455.5A13.54,13.54,0,0,0,552.84,442H535.48A13.54,13.54,0,0,0,522,455.5v2.32a11.18,11.18,0,0,0,.19,2.51,70,70,0,0,1,6.75-1.93Z"/>
      <path class="cls-1" d="M544.16,586.69a59.91,59.91,0,0,0,53.25-32.6H490.72A59.83,59.83,0,0,0,544.16,586.69Z"/>
      <path d="M500,486.37l1.16-1.15,1.35-1.36,1.16-1.15c.38-.39,1-.77,1.35-1.16a4.72,4.72,0,0,1,1.16-1c.38-.39,1-.78,1.35-1.16a7.87,7.87,0,0,1,1.35-1,6.83,6.83,0,0,1,1.54-1,8.29,8.29,0,0,1,1.35-1c.58-.38,1-.58,1.54-1,.39-.19,1-.58,1.35-.77.58-.39,1-.58,1.55-1,.38-.19,1-.58,1.35-.77.58-.19,1.16-.58,1.73-.77.39-.19,1-.39,1.36-.58a7.07,7.07,0,0,0,1.73-.77c.58-.19,1-.39,1.55-.58l1.73-.58c.58-.19,1-.38,1.54-.58.39-.19.78-.19,1.16-.38a14.39,14.39,0,0,1-5.79-8.69A69.86,69.86,0,0,0,490,482.9,5,5,0,0,0,494,491a5.42,5.42,0,0,0,4.05-1.93l.39-.38c.38-.39.58-.77,1-1.16C499.21,487.34,499.6,486.76,500,486.37Z"/>
      <path d="M598.76,483.09a69.84,69.84,0,0,0-32.6-22.76,12.51,12.51,0,0,1-5.79,8.68c.38.19.77.19,1.16.39.57.19,1,.38,1.54.57l1.74.58c.57.2,1,.39,1.54.58a7,7,0,0,1,1.74.77c.38.2,1,.39,1.35.58.57.2,1.15.58,1.73.77.39.2,1,.58,1.35.78a4.15,4.15,0,0,1,1.55,1c.38.19,1,.58,1.35.77.58.39,1,.58,1.54,1a5.92,5.92,0,0,1,1.35,1,6.89,6.89,0,0,0,1.54,1,8.75,8.75,0,0,0,1.35,1c.39.39,1,.77,1.35,1.16s.78.58,1.16,1,1,.77,1.35,1.16l1.16,1.16,1.35,1.35,1.16,1.16c.38.38.77,1,1.16,1.35a5.14,5.14,0,0,1,1,1.15l.39.39a5.4,5.4,0,0,0,4,1.93A5.14,5.14,0,0,0,598.76,483.09Z"/>
      <path d="M528.92,458.4a6.53,6.53,0,0,0,6.56,6h17.36c3.48.32,6.95-2.56,7.14-5.84a71.43,71.43,0,0,0-15.82-1.88A97,97,0,0,0,528.92,458.4Z"/>
      <path d="M560,468.82c.2,0,.58.19.77.19a14.31,14.31,0,0,0,5.79-8.68,70,70,0,0,0-6.75-1.93,6.53,6.53,0,0,1-6.56,6H535.87a7.05,7.05,0,0,1-7-6,63,63,0,0,0-6.37,1.73A11.32,11.32,0,0,0,528,469c.19,0,.58-.19.77-.19.58-.2,1-.2,1.54-.39s1.35-.19,1.93-.38,1-.2,1.54-.39c.78-.19,1.35-.19,2.13-.39.38,0,1-.19,1.35-.19.77,0,1.54-.19,2.31-.19a2.38,2.38,0,0,0,1.16-.2c1.16,0,2.31-.19,3.67-.19a25,25,0,0,1,3.66.19,2.38,2.38,0,0,1,1.16.2c.77,0,1.54.19,2.31.19.39,0,1,.19,1.35.19.78.2,1.35.2,2.13.39a4.43,4.43,0,0,1,1.54.39"/>
      <path d="M583.52,481.55a5.17,5.17,0,0,1-1.16-1"/>
      <path class="cls-2" d="M561.53,469.4c.57.19,1,.38,1.54.57C562.49,469.78,562.1,469.59,561.53,469.4Z"/>
      <path d="M566.35,471.13a11.24,11.24,0,0,1-1.54-.58"/>
      <path d="M498.63,487.72a5.17,5.17,0,0,1-1,1.16"/>
      <path d="M579.66,478.46a8.29,8.29,0,0,0,1.35,1"/>
      <path d="M575.42,475.57a4.76,4.76,0,0,1-1.35-.77"/>
      <path d="M569.24,472.29a2.55,2.55,0,0,1-1.35-.58"/>
      <path d="M578.31,477.5a8.29,8.29,0,0,1-1.35-1"/>
      <path d="M507.31,479.43c.39-.2.77-.58,1.35-1"/>
      <path d="M504.81,481.55a5.14,5.14,0,0,0,1.15-1"/>
      <path d="M512.91,475.57a5,5,0,0,0,1.35-.77"/>
      <path d="M517.15,473.25c-.38.2-1,.58-1.35.78"/>
      <path d="M503.45,482.71a6.23,6.23,0,0,1-1.15,1.15"/>
      <path d="M499.79,486.37a6.65,6.65,0,0,0,1.16-1.15"/>
      <path d="M510,477.5c.39-.39,1-.58,1.35-1"/>
      <path class="cls-2" d="M526.8,469.4c-.58.19-1,.38-1.54.57C525.83,469.78,526.22,469.59,526.8,469.4Z"/>
      <path class="cls-2" d="M523.52,470.55c-.58.2-1,.39-1.54.58C522.55,470.94,522.94,470.75,523.52,470.55Z"/>
      <path d="M518.89,472.29a2.08,2.08,0,0,0,1.35-.58"/>
      <path d="M530.08,468.43a4.66,4.66,0,0,1-1.54.39"/>
      <path d="M533.55,467.66A4.58,4.58,0,0,1,532,468"/>
      <path d="M544.16,475.57a51.18,51.18,0,0,0-51.32,51.32c0,28.55,30.29,105.53,51.32,106.11s51.32-77.75,51.32-106.11A51.05,51.05,0,0,0,544.16,475.57Zm0,85.08A31.64,31.64,0,1,1,575.8,529,31.65,31.65,0,0,1,544.16,560.65Z"/>
    </g>
  </g>
</svg>
