<svg xmlns="http://www.w3.org/2000/svg" viewBox="0 0 1080 1080">
  <defs>
    <style>
      .cls-1 {
        fill: none;
      }

      .cls-2 {
        fill: #189428;
      }
    </style>
  </defs>
  <title>Icone</title>
  <g id="Layer_2" data-name="Layer 2">
    <g>
      <path class="cls-1" d="M557.66,459c-.4-.2-.79-.2-1.18-.4h0A2.72,2.72,0,0,0,557.66,459Z"/>
      <path class="cls-1" d="M510.86,463.78a4.19,4.19,0,0,0-1.57,1A6.75,6.75,0,0,1,510.86,463.78Z"/>
      <path class="cls-1" d="M507.9,465.36c-.59.39-1,.59-1.58,1A6.6,6.6,0,0,0,507.9,465.36Z"/>
      <path class="cls-1" d="M520.54,459.63l-1.78.59Z"/>
      <path class="cls-1" d="M517.18,460.81a7.24,7.24,0,0,0-1.77.79A7.24,7.24,0,0,1,517.18,460.81Z"/>
      <path class="cls-1" d="M514,462.2c-.59.19-1.18.59-1.77.79A6.56,6.56,0,0,1,514,462.2Z"/>
      <path class="cls-1" d="M495.66,475.23l1.38-1.38A9,9,0,0,1,495.66,475.23Z"/>
      <path class="cls-1" d="M494.67,476.41c-.39.4-.79,1-1.18,1.38C493.88,477.4,494.28,476.81,494.67,476.41Z"/>
      <path class="cls-1" d="M502.18,469.3c-.4.4-1,.79-1.38,1.19C501.19,470.09,501.78,469.7,502.18,469.3Z"/>
      <path class="cls-1" d="M504.94,467.33a7.22,7.22,0,0,1-1.58,1A4.38,4.38,0,0,0,504.94,467.33Z"/>
      <path class="cls-1" d="M562.4,460.81a7.48,7.48,0,0,1,1.78.79A7.48,7.48,0,0,0,562.4,460.81Z"/>
      <path class="cls-1" d="M565.76,462.2c.59.19,1.18.59,1.77.79A6.56,6.56,0,0,0,565.76,462.2Z"/>
      <path class="cls-1" d="M568.91,463.78a4.15,4.15,0,0,1,1.58,1A16.33,16.33,0,0,0,568.91,463.78Z"/>
      <path class="cls-1" d="M559.24,459.63l1.78.59Z"/>
      <path class="cls-1" d="M571.88,465.36c.59.39,1,.59,1.58,1A4.15,4.15,0,0,1,571.88,465.36Z"/>
      <path class="cls-1" d="M522.12,459c.39-.2.79-.2,1.18-.4h0A2.76,2.76,0,0,1,522.12,459Z"/>
      <path class="cls-1" d="M580.17,471.67c.39.4,1,.79,1.38,1.19C581.16,472.46,580.56,472.07,580.17,471.67Z"/>
      <path class="cls-1" d="M585.1,476.41c.4.4.79,1,1.19,1.38C585.89,477.4,585.5,476.81,585.1,476.41Z"/>
      <path class="cls-1" d="M582.74,473.85l1.38,1.38A4.66,4.66,0,0,1,582.74,473.85Z"/>
      <path class="cls-1" d="M577.6,469.3c.4.4,1,.79,1.38,1.19A8.91,8.91,0,0,1,577.6,469.3Z"/>
      <path class="cls-1" d="M574.84,467.33a7,7,0,0,0,1.58,1A4.3,4.3,0,0,1,574.84,467.33Z"/>
      <path class="cls-1" d="M499.61,471.67c-.39.4-1,.79-1.38,1.19A8.47,8.47,0,0,1,499.61,471.67Z"/>
      <path class="cls-1" d="M555.49,445a6.66,6.66,0,0,0-6.72-6.71H531a6.65,6.65,0,0,0-6.71,6.71v3a69.25,69.25,0,0,1,31.2,0v-3Z"/>
      <path class="cls-2" d="M552.33,457.66c.59.19,1.38.19,2,.39A6,6,0,0,1,552.33,457.66Z"/>
      <path class="cls-2" d="M544.83,456.67c.79,0,1.58.2,2.37.2C546.41,456.87,545.62,456.67,544.83,456.67Z"/>
      <path class="cls-2" d="M548.58,457.06c.79.2,1.38.2,2.17.4C550,457.26,549.37,457.26,548.58,457.06Z"/>
      <path class="cls-2" d="M556.48,458.84h0c-.2,0-.4-.2-.79-.2C556.08,458.64,556.28,458.64,556.48,458.84Z"/>
      <path class="cls-2" d="M525.48,458.05c.59-.2,1.38-.2,2-.39A7.25,7.25,0,0,1,525.48,458.05Z"/>
      <path class="cls-2" d="M523.3,458.64h0c.2,0,.6-.2.79-.2A1.46,1.46,0,0,1,523.3,458.64Z"/>
      <path class="cls-2" d="M524.29,447.19v-2.37a6.65,6.65,0,0,1,6.71-6.71h17.77a6.66,6.66,0,0,1,6.72,6.71v3c2.37.6,4.74,1.19,6.91,2a10.32,10.32,0,0,0,.2-2.57v-2.37A13.86,13.86,0,0,0,548.77,431H531a13.86,13.86,0,0,0-13.82,13.82v2.37a11.15,11.15,0,0,0,.2,2.57c2.17-.79,4.54-1.38,6.91-2Z"/>
      <path class="cls-1" d="M539.89,579.08a61.29,61.29,0,0,0,54.49-33.36H485.2A61.23,61.23,0,0,0,539.89,579.08Z"/>
      <path class="cls-2" d="M494.67,476.41l1.19-1.18c.39-.4.79-.79,1.38-1.38l1.19-1.19c.39-.39,1-.79,1.38-1.18a5.17,5.17,0,0,1,1.18-1c.4-.4,1-.79,1.38-1.19a8.34,8.34,0,0,1,1.39-1,6.65,6.65,0,0,1,1.58-1,8.84,8.84,0,0,1,1.38-1c.59-.39,1-.59,1.58-1,.39-.2,1-.6,1.38-.79.59-.4,1-.6,1.58-1,.39-.2,1-.59,1.38-.79.59-.2,1.19-.59,1.78-.79.39-.2,1-.4,1.38-.59a7.31,7.31,0,0,0,1.78-.79c.59-.2,1-.4,1.58-.6l1.77-.59c.6-.2,1-.39,1.58-.59.4-.2.79-.2,1.19-.4a14.66,14.66,0,0,1-5.92-8.88,71.41,71.41,0,0,0-33.37,23.3,5.12,5.12,0,0,0,4.14,8.29,5.58,5.58,0,0,0,4.15-2l.39-.4c.4-.39.6-.79,1-1.18C493.88,477.4,494.28,476.81,494.67,476.41Z"/>
      <path class="cls-2" d="M595.77,473.06a71.34,71.34,0,0,0-33.37-23.3,12.76,12.76,0,0,1-5.92,8.88c.39.2.78.2,1.18.4.59.19,1,.39,1.58.59l1.78.59c.59.2,1,.4,1.58.59a7.24,7.24,0,0,1,1.77.79c.4.2,1,.4,1.39.6.59.19,1.18.59,1.77.79.4.19,1,.59,1.38.79a4.15,4.15,0,0,1,1.58,1c.4.2,1,.6,1.39.79.59.4,1,.6,1.58,1a6.15,6.15,0,0,1,1.38,1,7,7,0,0,0,1.58,1,8.23,8.23,0,0,0,1.38,1c.39.4,1,.79,1.38,1.19s.79.59,1.19,1,1,.79,1.38,1.19l1.18,1.18,1.39,1.39,1.18,1.18c.39.39.79,1,1.18,1.38a5.2,5.2,0,0,1,1,1.19l.4.39a5.52,5.52,0,0,0,4.14,2A5.26,5.26,0,0,0,595.77,473.06Z"/>
      <path class="cls-2" d="M524.29,447.78A6.68,6.68,0,0,0,531,453.9h17.77c3.56.33,7.11-2.61,7.31-6A73,73,0,0,0,539.89,446,99.26,99.26,0,0,0,524.29,447.78Z"/>
      <path class="cls-2" d="M523.3,458.64c.2,0,.6-.2.79-.2.6-.19,1-.19,1.58-.39s1.39-.2,2-.39,1-.2,1.58-.4c.79-.2,1.38-.2,2.17-.39.39,0,1-.2,1.38-.2.79,0,1.58-.2,2.37-.2a2.5,2.5,0,0,0,1.19-.2c1.18,0,2.36-.19,3.75-.19a26.15,26.15,0,0,1,3.75.19,2.46,2.46,0,0,1,1.18.2c.79,0,1.58.2,2.37.2.4,0,1,.2,1.38.2.79.19,1.39.19,2.18.39a4.66,4.66,0,0,1,1.58.4c.59.19,1.38.19,2,.39s1,.2,1.58.39c.2,0,.59.2.79.2a14.66,14.66,0,0,0,5.92-8.88c-2.17-.79-4.54-1.38-6.91-2a6.67,6.67,0,0,1-6.71,6.12H531.4a7.22,7.22,0,0,1-7.11-6.12,64.36,64.36,0,0,0-6.51,1.78A11.52,11.52,0,0,0,523.3,458.64Z"/>
      <path class="cls-2" d="M567.33,463c.4.19,1,.59,1.39.79A3.08,3.08,0,0,0,567.33,463Z"/>
      <path class="cls-2" d="M579,470.49c.4.39.79.59,1.19,1A5.48,5.48,0,0,1,579,470.49Z"/>
      <path class="cls-2" d="M557.66,459c.59.19,1,.39,1.58.59C558.65,459.43,558.25,459.23,557.66,459Z"/>
      <path class="cls-2" d="M561,460.22c.59.2,1,.4,1.58.59A11.38,11.38,0,0,1,561,460.22Z"/>
      <path class="cls-2" d="M581.55,472.86l1.19,1.18A6.59,6.59,0,0,0,581.55,472.86Z"/>
      <path class="cls-2" d="M587.28,479c-.4-.4-.6-.79-1-1.19A5.48,5.48,0,0,1,587.28,479Z"/>
      <path class="cls-2" d="M492.3,479c.4-.4.6-.79,1-1.19A5.2,5.2,0,0,1,492.3,479Z"/>
      <path class="cls-2" d="M576.22,468.32a8.23,8.23,0,0,0,1.38,1A3.48,3.48,0,0,1,576.22,468.32Z"/>
      <path class="cls-2" d="M570.49,464.57c.4.19,1,.59,1.39.79A5.18,5.18,0,0,1,570.49,464.57Z"/>
      <path class="cls-2" d="M564.18,461.41c.39.19,1,.39,1.38.59A2.63,2.63,0,0,1,564.18,461.41Z"/>
      <path class="cls-2" d="M573.46,466.34a6.48,6.48,0,0,1,1.38,1A7.7,7.7,0,0,1,573.46,466.34Z"/>
      <path class="cls-2" d="M503.56,468.32a8.66,8.66,0,0,1-1.38,1C502.57,469.11,503,468.71,503.56,468.32Z"/>
      <path class="cls-2" d="M500.8,470.49c-.4.39-.79.59-1.19,1A5.48,5.48,0,0,0,500.8,470.49Z"/>
      <path class="cls-2" d="M509.29,464.57c-.4.19-1,.59-1.39.79A5.18,5.18,0,0,0,509.29,464.57Z"/>
      <path class="cls-2" d="M512.25,463c-.4.19-1,.59-1.39.79A10,10,0,0,1,512.25,463Z"/>
      <path class="cls-2" d="M497,473.85l1.19-1.19A7,7,0,0,1,497,473.85Z"/>
      <path class="cls-2" d="M495.66,475.23l-1.18,1.18A6.56,6.56,0,0,0,495.66,475.23Z"/>
      <path class="cls-2" d="M506.32,466.34a6.48,6.48,0,0,0-1.38,1C505.34,466.94,505.93,466.74,506.32,466.34Z"/>
      <path class="cls-2" d="M522.12,459c-.59.19-1,.39-1.58.59C521.13,459.43,521.53,459.23,522.12,459Z"/>
      <path class="cls-2" d="M583.92,475.23c.4.39.79.79,1.18,1.18C584.71,476,584.32,475.62,583.92,475.23Z"/>
      <path class="cls-2" d="M518.76,460.22c-.59.2-1,.4-1.58.59C517.78,460.62,518.17,460.42,518.76,460.22Z"/>
      <path class="cls-2" d="M515.41,461.41c-.4.19-1,.39-1.39.59A2.17,2.17,0,0,0,515.41,461.41Z"/>
      <path class="cls-2" d="M523.9,458.44c.59-.19,1-.19,1.58-.39A4.64,4.64,0,0,1,523.9,458.44Z"/>
      <path class="cls-2" d="M527.45,457.66c.59-.2,1-.2,1.58-.4A4.6,4.6,0,0,1,527.45,457.66Z"/>
      <path class="cls-2" d="M554.3,458.05c.6.2,1,.2,1.58.39A3.71,3.71,0,0,1,554.3,458.05Z"/>
      <path class="cls-2" d="M550.75,457.46a4.82,4.82,0,0,1,1.58.39A4.82,4.82,0,0,0,550.75,457.46Z"/>
      <path class="cls-2" d="M547.2,456.87c.39,0,1,.19,1.38.19C548.18,457.06,547.59,456.87,547.2,456.87Z"/>
      <path class="cls-2" d="M539.89,465.36a52.37,52.37,0,0,0-52.52,52.52c0,29.22,31,108,52.52,108.59s52.52-79.57,52.52-108.59A52.24,52.24,0,0,0,539.89,465.36Zm0,87.07a32.38,32.38,0,1,1,32.38-32.38A32.38,32.38,0,0,1,539.89,552.43Z"/>
    </g>
  </g>
</svg>
