<svg width="1080" height="1080" viewBox="0 0 1080 1080" fill="none" xmlns="http://www.w3.org/2000/svg">
<path d="M557.57 470.3C557.17 470.1 556.78 470.1 556.38 469.9C556.741 470.122 557.148 470.259 557.57 470.3Z" fill="white"/>
<path d="M510.77 475C510.177 475.214 509.637 475.556 509.19 476C509.668 475.596 510.2 475.26 510.77 475V475Z" fill="white"/>
<path d="M507.81 476.62C507.22 477.01 506.81 477.21 506.23 477.62C506.798 477.357 507.329 477.021 507.81 476.62V476.62Z" fill="white"/>
<path d="M520.45 470.89L518.67 471.48L520.45 470.89Z" fill="white"/>
<path d="M517.09 472.08C516.461 472.254 515.861 472.52 515.31 472.87C515.861 472.52 516.461 472.254 517.09 472.08V472.08Z" fill="white"/>
<path d="M513.93 473.46C513.34 473.66 512.75 474.05 512.15 474.25C512.704 473.906 513.303 473.64 513.93 473.46V473.46Z" fill="white"/>
<path d="M495.57 486.49L496.95 485.11C496.539 485.617 496.076 486.079 495.57 486.49V486.49Z" fill="white"/>
<path d="M494.58 487.67C494.19 488.07 493.79 488.67 493.4 489.06C493.79 488.66 494.19 488.07 494.58 487.67Z" fill="white"/>
<path d="M502.08 480.57C501.69 480.96 501.08 481.36 500.7 481.75C501.1 481.36 501.69 481 502.08 480.57Z" fill="white"/>
<path d="M504.85 478.59C504.37 478.992 503.839 479.328 503.27 479.59C503.863 479.376 504.402 479.035 504.85 478.59V478.59Z" fill="white"/>
<path d="M562.3 472.08C562.93 472.252 563.53 472.519 564.08 472.87C563.53 472.519 562.93 472.252 562.3 472.08V472.08Z" fill="white"/>
<path d="M565.66 473.46C566.25 473.66 566.85 474.05 567.44 474.25C566.887 473.904 566.287 473.638 565.66 473.46V473.46Z" fill="white"/>
<path d="M568.82 475C569.413 475.214 569.952 475.556 570.4 476C569.891 475.64 569.363 475.306 568.82 475V475Z" fill="white"/>
<path d="M559.15 470.89L560.92 471.48L559.15 470.89Z" fill="white"/>
<path d="M571.78 476.62C572.37 477.01 572.78 477.21 573.36 477.62C572.769 477.402 572.23 477.061 571.78 476.62V476.62Z" fill="white"/>
<path d="M522 470.3C522.39 470.1 522.78 470.1 523.18 469.9C522.822 470.12 522.418 470.257 522 470.3V470.3Z" fill="white"/>
<path d="M580.07 482.94C580.47 483.33 581.07 483.73 581.46 484.12C581.06 483.73 580.47 483.33 580.07 482.94Z" fill="white"/>
<path d="M585 487.67C585.4 488.07 585.79 488.67 586.19 489.06C585.8 488.66 585.41 488.07 585 487.67Z" fill="white"/>
<path d="M582.64 485.11L584.02 486.49C583.468 486.133 582.997 485.662 582.64 485.11V485.11Z" fill="white"/>
<path d="M577.51 480.57C577.9 480.96 578.51 481.36 578.89 481.75C578.389 481.407 577.926 481.012 577.51 480.57V480.57Z" fill="white"/>
<path d="M574.74 478.59C575.22 478.992 575.751 479.328 576.32 479.59C575.727 479.376 575.188 479.035 574.74 478.59V478.59Z" fill="white"/>
<path d="M499.52 482.94C499.12 483.33 498.52 483.73 498.13 484.12C498.55 483.678 499.016 483.283 499.52 482.94Z" fill="white"/>
<path d="M552.23 468.92C552.83 469.11 553.62 469.11 554.23 469.31C553.546 469.293 552.87 469.161 552.23 468.92V468.92Z" fill="white"/>
<path d="M544.73 467.93C545.52 467.93 546.31 468.13 547.1 468.13C546.31 468.13 545.52 467.93 544.73 467.93Z" fill="white"/>
<path d="M548.48 468.33C549.27 468.52 549.87 468.52 550.65 468.72C549.87 468.52 549.27 468.52 548.48 468.33Z" fill="white"/>
<path d="M556.38 470.1C556.18 470.1 555.99 469.9 555.59 469.9C556 469.9 556.18 469.9 556.38 470.1Z" fill="white"/>
<path d="M525.38 469.31C525.97 469.12 526.76 469.12 527.38 468.92C526.734 469.142 526.061 469.273 525.38 469.31V469.31Z" fill="white"/>
<path d="M523.21 469.9C523.41 469.9 523.8 469.71 524 469.71C523.758 469.842 523.486 469.908 523.21 469.9V469.9Z" fill="white"/>
<path d="M524.2 458.45V456.08C524.192 455.197 524.36 454.321 524.694 453.503C525.029 452.685 525.523 451.942 526.147 451.318C526.772 450.693 527.515 450.199 528.333 449.865C529.15 449.53 530.026 449.362 530.91 449.37H548.68C549.563 449.362 550.439 449.53 551.257 449.865C552.075 450.199 552.818 450.693 553.442 451.318C554.067 451.942 554.561 452.685 554.895 453.503C555.23 454.321 555.398 455.197 555.39 456.08V459.08C557.726 459.627 560.033 460.295 562.3 461.08C562.474 460.235 562.541 459.372 562.5 458.51V456.14C562.489 452.478 561.03 448.969 558.44 446.38C555.851 443.79 552.342 442.331 548.68 442.32H530.91C527.248 442.331 523.739 443.79 521.149 446.38C518.56 448.969 517.1 452.478 517.09 456.14V458.51C517.057 459.372 517.124 460.234 517.29 461.08C519.557 460.295 521.864 459.627 524.2 459.08V458.45Z" fill="white"/>
<path d="M494.58 487.67L495.76 486.49L497.15 485.11L498.33 483.92C498.73 483.53 499.33 483.13 499.71 482.74C500.054 482.349 500.455 482.012 500.9 481.74C501.29 481.35 501.9 480.95 502.28 480.56C502.703 480.179 503.166 479.844 503.66 479.56C504.14 479.158 504.671 478.822 505.24 478.56C505.666 478.182 506.128 477.847 506.62 477.56C507.22 477.16 507.62 476.96 508.2 476.56C508.6 476.36 509.2 475.97 509.59 475.77C510.18 475.37 510.59 475.18 511.17 474.77C511.56 474.57 512.17 474.18 512.55 473.98C513.14 473.78 513.73 473.39 514.32 473.19C514.72 472.99 515.32 472.8 515.71 472.6C516.333 472.417 516.928 472.151 517.48 471.81C518.08 471.61 518.48 471.41 519.06 471.22L520.84 470.62C521.43 470.43 521.84 470.23 522.42 470.03C522.82 469.83 523.21 469.83 523.6 469.64C520.58 467.525 518.467 464.352 517.68 460.75C504.534 465.119 492.94 473.214 484.31 484.05C483.707 484.814 483.335 485.733 483.236 486.701C483.137 487.668 483.315 488.644 483.751 489.514C484.186 490.383 484.86 491.111 485.694 491.612C486.528 492.112 487.488 492.365 488.46 492.34C489.254 492.321 490.035 492.133 490.751 491.788C491.467 491.443 492.1 490.95 492.61 490.34L493 489.94C493.4 489.55 493.59 489.15 494 488.76C493.79 488.66 494.19 488.07 494.58 487.67Z" fill="white"/>
<path d="M595.67 484.32C587.045 473.473 575.45 465.371 562.3 461C562.015 462.82 561.337 464.557 560.315 466.09C559.293 467.623 557.951 468.916 556.38 469.88C556.78 470.08 557.17 470.08 557.57 470.28C558.16 470.48 558.57 470.67 559.15 470.87L560.92 471.46C561.51 471.66 561.92 471.86 562.5 472.06C563.129 472.234 563.729 472.5 564.28 472.85C564.67 473.04 565.28 473.24 565.66 473.44C566.25 473.64 566.85 474.03 567.44 474.23C567.83 474.43 568.44 474.82 568.82 475.02C569.413 475.234 569.952 475.576 570.4 476.02C570.79 476.21 571.4 476.61 571.78 476.81C572.37 477.2 572.78 477.4 573.36 477.81C573.865 478.076 574.33 478.413 574.74 478.81C575.223 479.208 575.753 479.544 576.32 479.81C576.748 480.19 577.213 480.525 577.71 480.81C578.1 481.21 578.71 481.6 579.09 482C579.47 482.4 579.88 482.59 580.27 483C580.66 483.41 581.27 483.79 581.65 484.18L582.84 485.37L584.22 486.75L585.41 487.93C585.8 488.33 586.2 488.93 586.59 489.31C586.981 489.654 587.318 490.055 587.59 490.5L587.98 490.89C588.488 491.501 589.122 491.995 589.838 492.34C590.554 492.685 591.335 492.873 592.13 492.89C593.077 492.795 593.98 492.444 594.743 491.876C595.507 491.308 596.102 490.544 596.465 489.665C596.828 488.785 596.946 487.824 596.806 486.882C596.666 485.941 596.273 485.056 595.67 484.32Z" fill="white"/>
<path d="M524.2 459.05C524.341 460.728 525.111 462.291 526.355 463.426C527.599 464.56 529.226 465.183 530.91 465.17H548.68C552.23 465.49 555.79 462.55 555.99 459.17C550.682 457.927 545.251 457.283 539.8 457.25C534.56 457.436 529.344 458.038 524.2 459.05V459.05Z" fill="white"/>
<path d="M523.21 469.9C523.41 469.9 523.8 469.71 524 469.71C524.59 469.51 525 469.51 525.58 469.31C526.16 469.11 526.96 469.12 527.58 468.92C528.2 468.72 528.58 468.72 529.16 468.52C529.95 468.33 530.55 468.33 531.34 468.13C531.73 468.13 532.34 467.93 532.72 467.93C533.51 467.93 534.3 467.73 535.09 467.73C535.493 467.76 535.897 467.695 536.27 467.54C537.46 467.54 538.64 467.34 540.02 467.34C541.273 467.312 542.527 467.379 543.77 467.54C544.176 467.51 544.584 467.575 544.96 467.73C545.75 467.73 546.54 467.93 547.33 467.93C547.72 467.93 548.33 468.13 548.71 468.13C549.5 468.33 550.09 468.33 550.88 468.52C551.426 468.558 551.961 468.694 552.46 468.92C553.05 469.12 553.84 469.12 554.46 469.31C555.08 469.5 555.46 469.51 556.04 469.71C556.23 469.71 556.63 469.9 556.83 469.9C559.834 467.775 561.93 464.598 562.7 461C560.433 460.215 558.126 459.547 555.79 459C555.649 460.678 554.879 462.241 553.635 463.376C552.391 464.51 550.764 465.133 549.08 465.12H531.31C529.59 465.114 527.929 464.494 526.626 463.372C525.322 462.25 524.462 460.7 524.2 459C521.996 459.471 519.819 460.062 517.68 460.77C517.8 462.624 518.365 464.422 519.328 466.011C520.291 467.601 521.622 468.935 523.21 469.9V469.9Z" fill="white"/>
<path d="M567.24 474.25C567.64 474.45 568.24 474.84 568.62 475.04C568.235 474.663 567.76 474.391 567.24 474.25V474.25Z" fill="white"/>
<path d="M578.89 481.75C579.28 482.15 579.68 482.34 580.07 482.75C579.629 482.478 579.231 482.141 578.89 481.75Z" fill="white"/>
<path d="M557.57 470.3C558.16 470.5 558.57 470.69 559.15 470.89C558.55 470.69 558.16 470.5 557.57 470.3Z" fill="white"/>
<path d="M560.92 471.48C561.51 471.68 561.92 471.88 562.5 472.08C561.962 471.912 561.434 471.712 560.92 471.48V471.48Z" fill="white"/>
<path d="M581.46 484.12L582.64 485.31C582.298 484.865 581.902 484.465 581.46 484.12V484.12Z" fill="white"/>
<path d="M587.18 490.24C586.79 489.85 586.59 489.45 586.18 489.06C586.571 489.4 586.908 489.798 587.18 490.24V490.24Z" fill="white"/>
<path d="M492.21 490.24C492.61 489.85 492.8 489.45 493.21 489.06C492.938 489.501 492.601 489.899 492.21 490.24Z" fill="white"/>
<path d="M576.13 479.58C576.557 479.957 577.019 480.292 577.51 480.58C576.976 480.362 576.503 480.019 576.13 479.58V479.58Z" fill="white"/>
<path d="M570.4 475.83C570.79 476.03 571.4 476.42 571.78 476.62C571.282 476.43 570.816 476.164 570.4 475.83V475.83Z" fill="white"/>
<path d="M564.08 472.67C564.48 472.87 565.08 473.06 565.46 473.26C564.953 473.2 564.474 472.995 564.08 472.67V472.67Z" fill="white"/>
<path d="M573.36 477.61C573.868 477.872 574.333 478.209 574.74 478.61C574.248 478.323 573.786 477.988 573.36 477.61V477.61Z" fill="white"/>
<path d="M503.47 479.58C503.039 479.957 502.574 480.292 502.08 480.58C502.48 480.37 502.87 480 503.47 479.58Z" fill="white"/>
<path d="M500.7 481.75C500.31 482.15 499.91 482.34 499.52 482.75C499.961 482.478 500.359 482.141 500.7 481.75Z" fill="white"/>
<path d="M509.19 475.83C508.8 476.03 508.19 476.42 507.81 476.62C508.308 476.43 508.774 476.164 509.19 475.83V475.83Z" fill="white"/>
<path d="M512.15 474.25C511.76 474.45 511.15 474.84 510.77 475.04C511.211 474.744 511.672 474.48 512.15 474.25Z" fill="white"/>
<path d="M497 485.11L498.18 483.92C497.838 484.365 497.442 484.765 497 485.11V485.11Z" fill="white"/>
<path d="M495.57 486.49L494.38 487.67C494.822 487.326 495.222 486.93 495.57 486.49V486.49Z" fill="white"/>
<path d="M506.23 477.61C505.722 477.872 505.257 478.209 504.85 478.61C505.24 478.2 505.83 478 506.23 477.61Z" fill="white"/>
<path d="M522 470.3C521.4 470.5 521 470.69 520.42 470.89C521 470.69 521.43 470.5 522 470.3Z" fill="white"/>
<path d="M583.83 486.49L585.01 487.67L583.83 486.49Z" fill="white"/>
<path d="M518.67 471.48C518.08 471.68 517.67 471.88 517.09 472.08C517.68 471.88 518.08 471.68 518.67 471.48Z" fill="white"/>
<path d="M515.31 472.67C514.92 472.87 514.31 473.06 513.93 473.26C514.446 473.236 514.936 473.026 515.31 472.67V472.67Z" fill="white"/>
<path d="M523.8 469.71C524.39 469.51 524.8 469.51 525.38 469.31C524.881 469.536 524.346 469.672 523.8 469.71Z" fill="white"/>
<path d="M527.36 468.92C527.95 468.72 528.36 468.72 528.94 468.52C528.441 468.745 527.906 468.881 527.36 468.92V468.92Z" fill="white"/>
<path d="M554.21 469.31C554.8 469.51 555.21 469.51 555.79 469.71C555.24 469.697 554.7 469.56 554.21 469.31V469.31Z" fill="white"/>
<path d="M550.65 468.72C551.195 468.758 551.729 468.89 552.23 469.11C551.729 468.89 551.195 468.758 550.65 468.72V468.72Z" fill="white"/>
<path d="M547.1 468.13C547.5 468.13 548.1 468.32 548.48 468.32C548.09 468.33 547.5 468.13 547.1 468.13Z" fill="white"/>
<path d="M539.8 476.62C532.897 476.599 526.057 477.943 519.675 480.575C513.293 483.207 507.494 487.074 502.612 491.955C497.73 496.836 493.861 502.634 491.228 509.016C488.595 515.397 487.25 522.237 487.27 529.14C487.27 558.36 518.27 637.14 539.8 637.73C561.33 638.32 592.32 558.16 592.32 529.14C592.356 522.233 591.022 515.387 588.395 508.999C585.768 502.611 581.901 496.807 577.017 491.923C572.133 487.039 566.329 483.172 559.941 480.545C553.553 477.918 546.707 476.584 539.8 476.62ZM539.8 563.69C533.396 563.69 527.135 561.791 521.811 558.233C516.486 554.675 512.336 549.618 509.885 543.701C507.434 537.785 506.793 531.274 508.042 524.993C509.292 518.712 512.375 512.942 516.904 508.414C521.432 503.886 527.202 500.802 533.483 499.552C539.764 498.303 546.275 498.944 552.191 501.395C558.108 503.846 563.165 507.996 566.723 513.321C570.281 518.646 572.18 524.906 572.18 531.31C572.177 539.897 568.765 548.131 562.693 554.203C556.621 560.275 548.387 563.687 539.8 563.69Z" fill="white"/>
</svg>
