<svg version="1.2" xmlns="http://www.w3.org/2000/svg" viewBox="0 0 121 202" width="300" height="500">
	<title>IconeBranco-svg</title>
	<style>
		.s0 { fill: #ffffff } 
	</style>
	<path id="Chpaéu" class="s0" d="m77.6 33.3c-0.4-0.2-0.8-0.2-1.2-0.4q0.5 0.3 1.2 0.4zm-46.8 4.7q-0.9 0.3-1.6 1 0.7-0.6 1.6-1zm-3 1.6c-0.6 0.4-1 0.6-1.6 1q0.9-0.4 1.6-1zm12.7-5.7l-1.8 0.6zm-3.4 1.2q-0.9 0.2-1.8 0.8 0.9-0.6 1.8-0.8zm-3.2 1.4c-0.5 0.2-1.1 0.5-1.7 0.7q0.8-0.5 1.7-0.7zm-18.3 13l1.4-1.4q-0.6 0.8-1.4 1.4zm-1 1.2c-0.4 0.4-0.8 1-1.2 1.4 0.4-0.4 0.8-1 1.2-1.4zm7.5-7.1c-0.4 0.4-1 0.8-1.4 1.1 0.4-0.3 1-0.7 1.4-1.1zm2.8-2q-0.8 0.6-1.6 1 0.9-0.3 1.6-1zm57.4-6.5q1 0.2 1.8 0.8-0.8-0.6-1.8-0.8zm3.4 1.4c0.6 0.2 1.2 0.5 1.8 0.7q-0.9-0.5-1.8-0.7zm3.1 1.5q0.9 0.3 1.6 1-0.7-0.6-1.6-1zm-9.6-4.1l1.7 0.6zm12.7 5.7c0.6 0.4 1 0.6 1.5 1q-0.8-0.3-1.5-1zm-49.8-6.3c0.4-0.2 0.8-0.2 1.2-0.4q-0.6 0.3-1.2 0.4zm58.1 12.6c0.4 0.4 1 0.8 1.3 1.2-0.4-0.4-0.9-0.8-1.3-1.2zm4.9 4.8c0.4 0.4 0.8 1 1.2 1.3-0.4-0.4-0.8-0.9-1.2-1.3zm-2.4-2.6l1.4 1.4q-0.8-0.6-1.4-1.4zm-5.1-4.5c0.4 0.3 1 0.7 1.4 1.1q-0.8-0.5-1.4-1.1zm-2.8-2q0.8 0.6 1.6 1-0.9-0.4-1.6-1zm-75.2 4.3c-0.4 0.4-1 0.8-1.4 1.2q0.7-0.7 1.4-1.2zm52.7-14c0.6 0.2 1.4 0.2 2 0.4q-1 0-2-0.4zm-7.5-1c0.8 0 1.6 0.2 2.4 0.2-0.8 0-1.6-0.2-2.4-0.2zm3.8 0.4c0.8 0.2 1.4 0.2 2.1 0.4-0.7-0.2-1.3-0.2-2.1-0.4zm7.9 1.8c-0.2 0-0.4-0.2-0.8-0.2 0.4 0 0.6 0 0.8 0.2zm-31-0.8c0.6-0.2 1.3-0.2 2-0.4q-1 0.3-2 0.4zm-2.2 0.6c0.2 0 0.6-0.2 0.8-0.2q-0.4 0.2-0.8 0.2zm1-10.8q-3.5 0.8-6.9 2-0.3-1.3-0.2-2.6v-2.4c0-3.6 1.4-7.2 4-9.7 2.6-2.6 6.1-4.1 9.8-4.1h17.8c3.6 0 7.1 1.5 9.7 4.1 2.6 2.5 4.1 6.1 4.1 9.7v2.4q0.1 1.3-0.2 2.6-3.4-1.2-6.9-2v-3q0-1.4-0.5-2.6-0.5-1.3-1.5-2.2-0.9-0.9-2.2-1.5-1.2-0.5-2.5-0.4h-17.8q-1.3-0.1-2.6 0.4-1.2 0.6-2.2 1.5-0.9 0.9-1.4 2.2-0.5 1.2-0.5 2.6v2.3zm-30.2 29.7c-0.4 0.4-0.6 0.8-1 1.2l-0.4 0.4q-0.8 0.9-1.9 1.4-1 0.6-2.3 0.6c-0.9 0-1.9-0.2-2.7-0.7-0.9-0.5-1.5-1.3-2-2.1-0.4-0.9-0.6-1.9-0.5-2.8 0.1-1 0.5-1.9 1.1-2.7 8.6-10.8 20.2-18.9 33.4-23.3 0.8 3.6 2.9 6.8 5.9 8.9-0.4 0.2-0.8 0.2-1.2 0.4-0.6 0.2-1 0.4-1.6 0.6l-1.8 0.6c-0.5 0.2-0.9 0.4-1.5 0.6q-0.9 0.5-1.8 0.8c-0.4 0.2-1 0.3-1.4 0.5-0.6 0.2-1.2 0.6-1.8 0.8-0.3 0.2-1 0.6-1.3 0.8-0.6 0.4-1 0.6-1.6 1-0.4 0.2-1 0.6-1.4 0.8-0.6 0.4-1 0.6-1.6 1q-0.7 0.4-1.4 1-0.8 0.4-1.6 1-0.7 0.4-1.3 1c-0.4 0.4-1 0.8-1.4 1.2q-0.7 0.4-1.2 1c-0.4 0.4-1 0.8-1.4 1.2l-1.2 1.2-1.4 1.3-1.1 1.2c-0.4 0.4-0.8 1-0.6 1.1zm102.8-1.9c0.1 1 0 1.9-0.3 2.8-0.4 0.9-1 1.7-1.8 2.2-0.7 0.6-1.6 0.9-2.6 1q-1.2 0-2.3-0.5-1.1-0.5-1.8-1.5l-0.4-0.3q-0.4-0.7-1-1.2c-0.4-0.4-0.8-1-1.2-1.4l-1.2-1.2-1.4-1.4-1.2-1.2c-0.3-0.4-1-0.7-1.3-1.1-0.4-0.5-0.8-0.6-1.2-1-0.4-0.4-1-0.8-1.4-1.2q-0.7-0.5-1.4-1-0.8-0.4-1.6-1-0.6-0.6-1.4-1c-0.5-0.4-0.9-0.6-1.5-1-0.4-0.2-1-0.6-1.4-0.8q-0.7-0.7-1.6-1c-0.4-0.2-1-0.6-1.4-0.8-0.6-0.2-1.2-0.6-1.8-0.8-0.3-0.2-0.9-0.4-1.3-0.6q-0.9-0.5-1.8-0.8c-0.6-0.2-1-0.4-1.6-0.6l-1.8-0.6c-0.5-0.2-1-0.4-1.5-0.6-0.4-0.2-0.8-0.2-1.2-0.4 1.5-0.9 2.9-2.2 3.9-3.8 1-1.5 1.7-3.2 2-5 13.1 4.3 24.7 12.4 33.4 23.3 0.6 0.7 1 1.6 1.1 2.5zm-57-29.6c5.4 0 10.9 0.7 16.2 1.9-0.2 3.4-3.8 6.3-7.3 6h-17.8c-1.7 0-3.3-0.6-4.6-1.7-1.2-1.2-2-2.7-2.1-4.4q7.7-1.5 15.6-1.8zm-20.5 8.8c-0.9-1.6-1.5-3.4-1.6-5.3q3.2-1 6.5-1.7c0.3 1.7 1.1 3.2 2.4 4.3 1.3 1.1 3 1.8 4.7 1.8h17.8c1.7 0 3.3-0.6 4.5-1.8 1.3-1.1 2-2.7 2.2-4.3q3.5 0.8 6.9 2c-0.8 3.5-2.9 6.7-5.9 8.9-0.2 0-0.6-0.2-0.8-0.2-0.6-0.2-0.9-0.2-1.6-0.4-0.6-0.2-1.4-0.2-2-0.4q-0.7-0.4-1.5-0.4c-0.8-0.2-1.4-0.2-2.2-0.4-0.4 0-1-0.2-1.4-0.2-0.8 0-1.6-0.2-2.4-0.2q-0.5-0.3-1.1-0.2-1.9-0.3-3.8-0.2c-1.4 0-2.6 0.2-3.7 0.2q-0.6 0.2-1.2 0.2c-0.8 0-1.6 0.2-2.4 0.2-0.4 0-1 0.2-1.4 0.2-0.8 0.2-1.4 0.2-2.2 0.4-0.5 0.2-0.9 0.2-1.5 0.4-0.7 0.2-1.5 0.2-2 0.4-0.6 0.2-1 0.2-1.6 0.4-0.2 0-0.6 0.2-0.8 0.2-1.6-1-2.9-2.3-3.9-3.9zm47.9 8.2c0.4 0.2 1 0.6 1.4 0.8q-0.6-0.6-1.4-0.8zm11.7 7.5c0.4 0.4 0.8 0.6 1.2 1q-0.7-0.4-1.2-1zm-21.3-11.4c0.5 0.2 1 0.3 1.5 0.5-0.6-0.2-1-0.3-1.5-0.5zm3.3 1.1c0.6 0.2 1 0.4 1.6 0.6q-0.8-0.2-1.6-0.6zm20.5 12.7l1.2 1.2q-0.5-0.7-1.2-1.2zm5.8 6.1c-0.4-0.4-0.6-0.8-1-1.2q0.6 0.5 1 1.2zm-95 0c0.4-0.4 0.6-0.8 1-1.2q-0.4 0.7-1 1.2zm83.9-10.7q0.7 0.6 1.4 1-0.8-0.3-1.4-1zm-5.7-3.7c0.4 0.2 1 0.6 1.4 0.8q-0.8-0.3-1.4-0.8zm-6.3-3.2c0.4 0.2 1 0.4 1.3 0.6q-0.7-0.1-1.3-0.6zm9.2 5q0.8 0.4 1.4 1-0.7-0.5-1.4-1zm-69.8 1.9q-0.7 0.6-1.4 1c0.4-0.2 0.8-0.5 1.4-1zm-2.8 2.2c-0.4 0.4-0.8 0.6-1.2 1q0.7-0.4 1.2-1zm8.5-5.9c-0.4 0.2-1 0.6-1.4 0.8q0.8-0.3 1.4-0.8zm2.9-1.6c-0.4 0.2-1 0.6-1.3 0.8q0.6-0.5 1.3-0.8zm-15.1 10.9l1.2-1.2q-0.5 0.6-1.2 1.2zm-1.4 1.3l-1.2 1.2q0.6-0.5 1.2-1.2zm10.6-8.8q-0.7 0.4-1.4 1c0.4-0.4 1-0.6 1.4-1zm15.8-7.3c-0.6 0.2-1 0.3-1.6 0.5 0.6-0.2 1-0.3 1.6-0.5zm61.8 16.1l1.2 1.2zm-65.2-15c-0.6 0.2-1 0.4-1.5 0.6 0.5-0.2 0.9-0.4 1.5-0.6zm-3.3 1.2c-0.4 0.2-1 0.4-1.4 0.6 0.5 0 1-0.2 1.4-0.6zm8.5-3c0.6-0.2 1-0.2 1.5-0.4q-0.7 0.4-1.5 0.4zm3.5-0.7c0.6-0.2 1-0.2 1.6-0.4q-0.7 0.3-1.6 0.4zm26.9 0.3c0.6 0.2 1 0.2 1.6 0.4q-0.9 0-1.6-0.4zm-3.6-0.5q0.8 0 1.6 0.3-0.8-0.3-1.6-0.3zm-3.5-0.6c0.4 0 1 0.2 1.3 0.2-0.3 0-0.9-0.2-1.3-0.2z"/>
	<path id="Corpo" fill-rule="evenodd" class="s0" d="m79.9 43.5c6.4 2.7 12.2 6.5 17.1 11.4 4.9 4.9 8.8 10.7 11.4 17.1 2.6 6.4 4 13.2 3.9 20.1 0 29.1-31 109.2-52.5 108.6-21.5-0.6-52.5-79.3-52.5-108.6-0.1-6.9 1.3-13.7 3.9-20.1 2.7-6.4 6.5-12.2 11.4-17 4.9-4.9 10.7-8.8 17.1-11.4 6.4-2.7 13.2-4 20.1-4 6.9 0 13.8 1.3 20.1 3.9zm2.8 73.7c6.1-6.1 9.5-14.3 9.5-22.9 0-6.4-1.9-12.7-5.5-18-3.5-5.3-8.6-9.5-14.5-11.9-5.9-2.5-12.4-3.1-18.7-1.8-6.3 1.2-12.1 4.3-16.6 8.8-4.5 4.5-7.6 10.3-8.9 16.6-1.2 6.3-0.6 12.8 1.9 18.7 2.4 5.9 6.6 11 11.9 14.5 5.3 3.6 11.6 5.5 18 5.5 8.6 0 16.8-3.4 22.9-9.5z"/>
</svg>