<svg version="1.2" xmlns="http://www.w3.org/2000/svg" viewBox="0 0 374 105" width="374" height="105">
	<title>logotipoBranco-svg</title>
	<style>
		.s0 { fill: #ffffff } 
	</style>
	<g id="Layer_10">
		<g id="Layer_6-2">
			<g id="Layer_3-2">
				<g id="Layer">
					<path id="Layer" fill-rule="evenodd" class="s0" d="m38.4 22.1q1.3 0 2.6 0.1 1.3 0.2 2.6 0.4 1.2 0.3 2.5 0.6 1.2 0.4 2.4 0.9 1.2 0.5 2.3 1.1 1.1 0.6 2.1 1.3 1.1 0.7 2 1.4 1 0.8 1.9 1.7 0.9 0.9 1.7 1.9 0.8 0.9 1.5 2 0.7 1 1.2 2.1 0.6 1.1 1.1 2.3 0.5 1.2 0.9 2.4 0.3 1.3 0.6 2.6 0.3 1.2 0.4 2.5 0.1 1.3 0.1 2.6v24.3h-9.7v-4q-0.8 0.7-1.7 1.3-0.9 0.6-1.8 1.1-1 0.5-1.9 1-1 0.4-2 0.8-1 0.4-2.1 0.7-1.1 0.2-2.2 0.4-1.1 0.2-2.2 0.3-1.1 0.1-2.2 0.1-1.3 0-2.6-0.1-1.3-0.2-2.5-0.4-1.3-0.3-2.5-0.6-1.3-0.4-2.5-0.9-1.1-0.5-2.2-1.1-1.1-0.6-2.2-1.3-1-0.7-2-1.4-1-0.8-1.9-1.7-0.9-0.9-1.7-1.9-0.8-0.9-1.4-2-0.7-1-1.3-2.1-0.6-1.1-1.1-2.3-1-2.4-1.5-5-0.5-2.5-0.5-5.1 0-2.6 0.5-5.1 0.5-2.6 1.5-5 0.5-1.2 1.1-2.3 0.6-1.1 1.3-2.1 0.7-1 1.5-2 0.7-1 1.6-1.9 0.9-0.9 1.9-1.7 0.9-0.8 2-1.5 1-0.7 2.1-1.2 1.2-0.6 2.3-1.1 1.2-0.5 2.4-0.9 1.2-0.4 2.5-0.7 1.3-0.2 2.5-0.4 1.3-0.1 2.6-0.1zm0 42.1q0.8 0 1.6-0.1 0.8 0 1.6-0.2 0.8-0.2 1.6-0.4 0.8-0.3 1.5-0.6 0.7-0.3 1.4-0.7 0.7-0.4 1.3-0.8 0.7-0.4 1.3-0.9 0.6-0.5 1.1-1.1 0.6-0.5 1-1.1 0.5-0.6 1-1.3 0.4-0.6 0.8-1.3 0.3-0.7 0.6-1.4 0.7-1.5 1-3.1 0.3-1.6 0.3-3.2 0-1.6-0.3-3.2-0.3-1.6-1-3.1-0.3-0.7-0.7-1.4-0.3-0.7-0.7-1.3-0.5-0.7-1-1.3-0.4-0.6-1-1.1-0.5-0.5-1.1-1-0.6-0.5-1.3-1-0.6-0.4-1.3-0.8-0.7-0.4-1.4-0.7-0.7-0.3-1.5-0.6-0.8-0.2-1.6-0.4-0.8-0.1-1.6-0.2-0.8-0.1-1.6-0.1-1.6 0-3.1 0.3-1.6 0.3-3.1 1-1.4 0.6-2.8 1.5-1.3 0.9-2.4 2-0.5 0.6-1 1.2-0.5 0.6-1 1.2-0.4 0.6-0.8 1.3-0.4 0.7-0.7 1.4-0.3 0.7-0.5 1.5-0.3 0.8-0.4 1.6-0.2 0.8-0.3 1.6-0.1 0.8-0.1 1.6 0 0.8 0.1 1.6 0.1 0.8 0.2 1.6 0.2 0.8 0.4 1.6 0.3 0.8 0.6 1.5 0.3 0.7 0.7 1.4 0.4 0.7 0.8 1.3 0.5 0.7 1 1.3 0.5 0.6 1 1.1 0.6 0.5 1.2 1 0.6 0.5 1.2 1 0.6 0.4 1.3 0.8 0.7 0.4 1.4 0.7 0.8 0.3 1.5 0.6 0.8 0.2 1.6 0.4 0.8 0.2 1.6 0.2 0.8 0.1 1.6 0.1zm12.6-50.2l-2.8 4.9-9.7-5.6-9.7 5.6-2.8-4.9 6.1-4.4 6.5-4.7 6.5 4.7z"/>
					<path id="Layer" class="s0" d="m166.9 72.3h-9.7v-24.3q0-0.8-0.1-1.6 0-0.8-0.2-1.6-0.2-0.8-0.4-1.6-0.3-0.8-0.6-1.5-0.3-0.7-0.7-1.4-0.4-0.7-0.8-1.3-0.4-0.7-0.9-1.3-0.5-0.6-1.1-1.1-0.5-0.5-1.1-1-0.6-0.5-1.3-1-0.6-0.4-1.3-0.8-0.7-0.4-1.4-0.7-0.7-0.3-1.5-0.6-0.8-0.2-1.6-0.4-0.8-0.1-1.6-0.2-0.8-0.1-1.6-0.1-1 0-1.9 0.1-1 0.1-1.9 0.4-1 0.2-1.9 0.5-0.9 0.4-1.8 0.8-0.8 0.4-1.6 1-0.8 0.5-1.5 1.1-0.7 0.6-1.3 1.3-0.7 0.7-1.2 1.5 0.5 1.1 0.8 2.3 0.3 1.2 0.6 2.4 0.2 1.2 0.3 2.4 0.1 1.2 0.1 2.4v24.3h-9.7v-24.3q0-1.3-0.2-2.5-0.2-1.3-0.6-2.5-0.4-1.2-0.9-2.4-0.6-1.1-1.4-2.1-0.5-0.8-1.2-1.5-0.6-0.7-1.3-1.3-0.7-0.6-1.5-1.1-0.8-0.6-1.6-1-0.9-0.4-1.8-0.8-0.9-0.3-1.8-0.6-1-0.2-2-0.3-0.9-0.1-1.9-0.1-1.6 0-3.2 0.3-1.5 0.3-3 1-1.5 0.6-2.8 1.5-1.3 0.9-2.4 2-0.5 0.6-1 1.2-0.5 0.6-1 1.2-0.4 0.6-0.8 1.3-0.4 0.7-0.7 1.4-0.3 0.7-0.6 1.5-0.2 0.8-0.4 1.6-0.1 0.8-0.2 1.6-0.1 0.8-0.1 1.6v24.3h-9.7v-24.3q0-1.3 0.1-2.6 0.2-1.3 0.4-2.5 0.3-1.3 0.6-2.6 0.4-1.2 0.9-2.4 0.5-1.2 1.1-2.3 0.6-1.1 1.3-2.1 0.7-1 1.4-2 0.8-1 1.7-1.9 0.9-0.9 1.9-1.7 0.9-0.8 2-1.5 1-0.7 2.1-1.2 1.1-0.6 2.3-1.1 1.2-0.5 2.4-0.9 1.3-0.3 2.6-0.6 1.2-0.2 2.5-0.4 1.3-0.1 2.6-0.1 1.3 0 2.6 0.1 1.4 0.2 2.7 0.4 1.3 0.3 2.5 0.7 1.3 0.4 2.5 0.9 1.2 0.5 2.3 1.1 1.1 0.7 2.1 1.4 1.1 0.7 2.1 1.5 0.9 0.9 1.8 1.8 0.9-0.9 1.9-1.7 0.9-0.9 2-1.6 1-0.7 2.1-1.4 1.1-0.6 2.3-1.1 1.2-0.5 2.5-0.9 1.2-0.4 2.5-0.7 1.3-0.2 2.7-0.4 1.3-0.1 2.6-0.1 1.3 0 2.6 0.1 1.3 0.2 2.5 0.4 1.3 0.3 2.6 0.6 1.2 0.4 2.4 0.9 1.2 0.5 2.3 1.1 1.1 0.6 2.1 1.3 1 0.7 2 1.4 1 0.8 1.9 1.7 0.9 0.9 1.7 1.9 0.8 0.9 1.5 2 0.7 1 1.2 2.1 0.6 1.1 1.1 2.3 0.5 1.2 0.9 2.4 0.3 1.3 0.6 2.6 0.2 1.2 0.4 2.5 0.1 1.3 0.1 2.6c0 0 0 24.3 0 24.3z"/>
					<path id="Layer" fill-rule="evenodd" class="s0" d="m204.8 22.1q1.3 0 2.6 0.1 1.3 0.2 2.6 0.4 1.2 0.3 2.5 0.6 1.2 0.4 2.4 0.9 1.2 0.5 2.3 1.1 1.1 0.6 2.1 1.3 1.1 0.7 2 1.4 1 0.8 1.9 1.7 0.9 0.9 1.7 1.9 0.8 0.9 1.5 2 0.7 1 1.2 2.1 0.6 1.1 1.1 2.3 0.5 1.2 0.9 2.4 0.3 1.3 0.6 2.6 0.3 1.2 0.4 2.5 0.1 1.3 0.1 2.6v24.3h-9.7v-4q-0.8 0.7-1.7 1.3-0.9 0.6-1.8 1.1-1 0.5-1.9 1-1 0.4-2 0.8-1 0.4-2.1 0.7-1.1 0.2-2.2 0.4-1.1 0.2-2.2 0.3-1.1 0.1-2.2 0.1-1.3 0-2.6-0.1-1.3-0.2-2.5-0.4-1.3-0.3-2.6-0.6-1.2-0.4-2.4-0.9-1.2-0.5-2.3-1.1-1.1-0.6-2.1-1.3-1-0.7-2-1.4-1-0.8-1.9-1.7-0.9-0.9-1.7-1.9-0.8-0.9-1.5-2-0.7-1-1.2-2.1-0.6-1.1-1.1-2.3-1-2.4-1.5-5-0.5-2.5-0.5-5.1 0-2.6 0.5-5.1 0.5-2.6 1.5-5 0.5-1.2 1.1-2.3 0.6-1.1 1.3-2.1 0.7-1 1.4-2 0.8-1 1.7-1.9 0.9-0.9 1.9-1.7 0.9-0.8 2-1.5 1-0.7 2.1-1.2 1.1-0.6 2.3-1.1 1.2-0.5 2.4-0.9 1.2-0.4 2.5-0.7 1.3-0.3 2.5-0.4 1.3-0.1 2.6-0.1zm0 42.1q0.8 0 1.6-0.1 0.8 0 1.6-0.2 0.8-0.2 1.6-0.4 0.8-0.3 1.5-0.6 0.7-0.3 1.4-0.7 0.7-0.4 1.3-0.8 0.7-0.4 1.3-0.9 0.6-0.5 1.1-1.1 0.6-0.5 1-1.1 0.5-0.6 1-1.3 0.4-0.6 0.8-1.3 0.3-0.7 0.6-1.4 0.7-1.5 1-3.1 0.3-1.6 0.3-3.2 0-1.6-0.3-3.2-0.3-1.6-1-3.1-0.3-0.7-0.7-1.4-0.3-0.7-0.7-1.3-0.5-0.7-1-1.3-0.4-0.6-1-1.1-0.5-0.5-1.1-1-0.6-0.5-1.3-1-0.6-0.4-1.3-0.8-0.7-0.4-1.4-0.7-0.7-0.3-1.5-0.6-0.8-0.2-1.6-0.4-0.8-0.1-1.6-0.2-0.8-0.1-1.6-0.1-1.6 0-3.1 0.3-1.6 0.3-3.1 1-1.4 0.6-2.8 1.5-1.3 0.9-2.4 2-0.5 0.6-1 1.2-0.5 0.6-1 1.2-0.4 0.6-0.8 1.3-0.4 0.7-0.7 1.4-0.3 0.7-0.5 1.5-0.3 0.8-0.4 1.6-0.2 0.8-0.3 1.6-0.1 0.8-0.1 1.6 0 0.8 0.1 1.6 0.1 0.8 0.2 1.6 0.2 0.8 0.4 1.6 0.3 0.8 0.6 1.5 0.3 0.7 0.7 1.4 0.4 0.7 0.8 1.3 0.5 0.7 1 1.3 0.5 0.6 1 1.1 0.6 0.5 1.2 1 0.6 0.5 1.2 1 0.6 0.4 1.3 0.8 0.7 0.4 1.4 0.7 0.7 0.3 1.5 0.6 0.8 0.2 1.6 0.4 0.8 0.2 1.6 0.2 0.8 0.1 1.6 0.1z"/>
					<path id="Layer" fill-rule="evenodd" class="s0" d="m268.5 22.1q1.3 0 2.6 0.1 1.3 0.2 2.6 0.4 1.2 0.3 2.5 0.6 1.2 0.4 2.4 0.9 1.2 0.5 2.3 1.1 1.1 0.6 2.1 1.3 1.1 0.7 2 1.4 1 0.8 1.9 1.7 0.9 0.9 1.7 1.9 0.8 0.9 1.5 2 0.7 1 1.2 2.1 0.6 1.1 1.1 2.3 0.5 1.2 0.9 2.4 0.3 1.3 0.6 2.6 0.3 1.2 0.4 2.5 0.1 1.3 0.1 2.6v24.3q0 1.7-0.2 3.4-0.2 1.7-0.7 3.3-0.4 1.6-1.1 3.2-0.6 1.5-1.5 3l-8.4-4.4q0.6-1 1-2 0.4-1 0.7-2.1 0.3-1.1 0.4-2.2 0.1-1.1 0.1-2.2v-4q0 0-0.1 0.1-0.1 0-0.1 0-0.1 0.1-0.1 0.1 0 0.1-0.1 0.1-1.4 1.1-3 2-1.5 0.9-3.2 1.5-1.6 0.7-3.4 1.1-1.7 0.4-3.5 0.6-0.3 0-0.6 0.1-0.4 0-0.7 0-0.3 0-0.6 0-0.4 0-0.7 0-2.1 0-4.2-0.3-2.1-0.3-4.1-1-2-0.7-3.9-1.7-1.8-1-3.5-2.3-1.1-0.8-2.1-1.8-1-0.9-1.9-2-0.9-1.1-1.7-2.2-0.8-1.2-1.4-2.4-0.7-1.4-1.3-2.9-0.6-1.4-0.9-3-0.4-1.5-0.6-3.1-0.2-1.5-0.2-3.1 0-1.3 0.1-2.6 0.2-1.3 0.4-2.5 0.3-1.3 0.6-2.6 0.4-1.2 0.9-2.4 0.5-1.2 1.1-2.3 0.6-1.1 1.3-2.1 0.7-1 1.5-2 0.7-1 1.6-1.9 0.9-0.9 1.9-1.7 0.9-0.8 2-1.5 1-0.7 2.1-1.2 1.2-0.6 2.3-1.1 1.2-0.5 2.4-0.9 1.2-0.4 2.4-0.7 1.3-0.3 2.6-0.4 1.2-0.1 2.5-0.1zm15.7 29.6q0.1-0.5 0.2-0.9 0.1-0.5 0.1-0.9 0.1-0.5 0.1-1 0-0.4 0-0.9 0-0.8-0.1-1.6 0-0.8-0.2-1.6-0.2-0.8-0.4-1.6-0.3-0.8-0.6-1.5-0.3-0.7-0.7-1.4-0.4-0.7-0.8-1.3-0.4-0.7-0.9-1.3-0.5-0.6-1.1-1.1-0.5-0.5-1.1-1-0.6-0.5-1.3-1-0.6-0.4-1.3-0.8-0.7-0.4-1.4-0.7-0.7-0.3-1.5-0.6-0.8-0.2-1.6-0.4-0.8-0.1-1.6-0.2-0.8-0.1-1.6-0.1-0.8 0-1.6 0.1-0.8 0-1.6 0.2-0.8 0.2-1.6 0.4-0.7 0.3-1.5 0.6-0.7 0.3-1.4 0.7-0.7 0.4-1.3 0.8-0.7 0.4-1.2 0.9-0.6 0.5-1.2 1.1-0.5 0.6-1 1.2-0.5 0.6-1 1.2-0.4 0.6-0.8 1.3-0.4 0.7-0.7 1.4-0.3 0.7-0.5 1.5-0.3 0.8-0.4 1.6-0.2 0.8-0.3 1.6-0.1 0.8-0.1 1.6 0 0.5 0 0.9 0 0.5 0.1 1 0 0.4 0.1 0.9 0.1 0.4 0.2 0.9 0.3 1.2 0.8 2.4 0.4 1.1 1.1 2.2 0.6 1.1 1.5 2 0.8 1 1.7 1.8 1.1 1 2.4 1.7 1.2 0.8 2.6 1.3 1.4 0.5 2.8 0.8 1.4 0.2 2.9 0.2 1.5 0 2.9-0.2 1.5-0.3 2.8-0.8 1.4-0.5 2.7-1.3 1.2-0.7 2.3-1.7 1-0.8 1.8-1.7 0.9-1 1.5-2 0.7-1.1 1.1-2.3 0.5-1.2 0.7-2.4z"/>
					<path id="Layer" fill-rule="evenodd" class="s0" d="m332.2 22.1q1.3 0 2.6 0.1 1.3 0.2 2.6 0.4 1.2 0.3 2.5 0.6 1.2 0.4 2.4 0.9 1.2 0.5 2.3 1.1 1.1 0.6 2.1 1.3 1.1 0.7 2 1.4 1 0.8 1.9 1.7 0.9 0.9 1.7 1.9 0.8 0.9 1.5 2 0.7 1 1.2 2.1 0.6 1.1 1.1 2.3 1 2.4 1.5 5 0.5 2.5 0.5 5.1 0 2.6-0.5 5.1-0.5 2.6-1.5 5-0.5 1.2-1.1 2.3-0.6 1.1-1.3 2.1-0.7 1-1.4 2-0.8 1-1.7 1.9-0.9 0.9-1.9 1.7-0.9 0.8-2 1.5-1 0.7-2.1 1.2-1.1 0.6-2.3 1.1-2.4 1-4.9 1.5-2.6 0.5-5.2 0.5-2.6 0-5.1-0.5-2.6-0.5-5-1.5-1.1-0.5-2.2-1.1-1.1-0.6-2.2-1.3-1-0.7-2-1.4-1-0.8-1.9-1.7-0.9-0.9-1.7-1.9-0.8-0.9-1.4-2-0.7-1-1.3-2.1-0.6-1.1-1.1-2.3-1-2.4-1.5-5-0.5-2.5-0.5-5.1 0-2.6 0.5-5.1 0.5-2.6 1.5-5 0.5-1.2 1.1-2.3 0.6-1.1 1.3-2.1 0.7-1 1.5-2 0.7-1 1.6-1.9 0.9-0.9 1.9-1.7 0.9-0.8 2-1.5 1-0.7 2.1-1.2 1.2-0.6 2.3-1.1 1.2-0.5 2.5-0.9 1.2-0.3 2.5-0.6 1.2-0.2 2.5-0.4 1.3-0.1 2.6-0.1zm-16.1 25.9q0 0.8 0.1 1.6 0.1 0.8 0.2 1.6 0.2 0.8 0.4 1.6 0.3 0.8 0.6 1.5 0.3 0.7 0.7 1.4 0.4 0.7 0.8 1.3 0.5 0.7 1 1.3 0.5 0.6 1 1.1 0.6 0.5 1.2 1 0.6 0.5 1.2 1 0.6 0.4 1.3 0.8 0.7 0.4 1.4 0.7 0.8 0.3 1.5 0.6 0.8 0.2 1.6 0.4 0.8 0.1 1.6 0.2 0.8 0.1 1.6 0.1 0.8 0 1.6-0.1 0.8 0 1.6-0.2 0.8-0.2 1.6-0.4 0.8-0.3 1.5-0.6 0.7-0.3 1.4-0.7 0.7-0.4 1.3-0.8 0.7-0.4 1.3-0.9 0.6-0.5 1.1-1.1 0.6-0.5 1-1.1 0.5-0.6 1-1.3 0.4-0.6 0.8-1.3 0.3-0.7 0.6-1.4 0.7-1.5 1-3.1 0.3-1.6 0.3-3.2 0-1.6-0.3-3.2-0.3-1.6-1-3.1-0.3-0.7-0.7-1.4-0.3-0.7-0.7-1.3-0.5-0.7-1-1.3-0.4-0.6-1-1.1-0.5-0.5-1.1-1-0.6-0.5-1.3-1-0.6-0.4-1.3-0.8-0.7-0.4-1.4-0.7-0.7-0.3-1.5-0.6-0.8-0.2-1.6-0.4-0.8-0.1-1.6-0.2-0.8-0.1-1.6-0.1-1.6 0-3.1 0.3-1.6 0.3-3.1 1-1.4 0.6-2.8 1.5-1.3 0.9-2.4 2-0.5 0.6-1 1.2-0.5 0.6-1 1.2-0.4 0.6-0.8 1.3-0.4 0.7-0.7 1.4-0.3 0.7-0.6 1.5-0.2 0.8-0.4 1.6-0.1 0.8-0.2 1.6-0.1 0.8-0.1 1.6z"/>
				</g>
				<g id="Layer_2-2">
					<path id="Layer" class="s0" d="m291.3 84.4c-1.4 2.7-3.3 5.1-5.6 7.2-2.4 2-5 3.6-7.9 4.7-2.9 1.1-5.9 1.7-9 1.7-3.1 0-6.1-0.6-9-1.7-2.9-1.1-5.5-2.7-7.8-4.7-2.3-2.1-4.2-4.5-5.6-7.2-1.4-2.8-2.3-5.7-2.6-8.8h9.4c0.7 3.6 2.6 6.9 5.4 9.3 2.9 2.4 6.5 3.7 10.2 3.7 3.7 0 7.3-1.3 10.2-3.7 2.8-2.4 4.7-5.7 5.4-9.3h9.6c-0.4 3.1-1.3 6-2.7 8.8z"/>
				</g>
			</g>
		</g>
	</g>
</svg>