<svg xmlns="http://www.w3.org/2000/svg" viewBox="0 0 1080 1080">
  <defs>
    <style>
      .cls-1 {
        fill: #189428;
      }
    </style>
  </defs>
  <title>LogotipoVerde-Letra</title>
  <g id="Layer_8" data-name="Layer 8">
    <g id="Layer_6-2" data-name="Layer 6">
      <g id="Layer_3-2" data-name="Layer 3">
        <g>
          <path class="cls-1" d="M391.41,510.1a26.75,26.75,0,0,1,10.1,2,27.31,27.31,0,0,1,8.3,5.5,25.59,25.59,0,0,1,5.5,8.3,26.75,26.75,0,0,1,2,10.1v24.3h-9.7v-4a27.19,27.19,0,0,1-7.4,4.2,25.68,25.68,0,0,1-8.7,1.5,26.75,26.75,0,0,1-10.1-2,27.31,27.31,0,0,1-8.3-5.5,25.59,25.59,0,0,1-5.5-8.3,26.5,26.5,0,0,1,0-20.2,27.31,27.31,0,0,1,5.5-8.3,25.59,25.59,0,0,1,8.3-5.5A24.58,24.58,0,0,1,391.41,510.1Zm0,42.1a15.14,15.14,0,0,0,6.3-1.3,16,16,0,0,0,5.1-3.5,15.72,15.72,0,0,0,3.4-5.1,15.92,15.92,0,0,0,0-12.6,16.27,16.27,0,0,0-3.4-5.1,17.82,17.82,0,0,0-5.1-3.5,16.9,16.9,0,0,0-6.3-1.3,16,16,0,0,0-11.4,4.8,17.82,17.82,0,0,0-3.5,5.1,16.9,16.9,0,0,0-1.3,6.3,15.14,15.14,0,0,0,1.3,6.3,16,16,0,0,0,3.5,5.1,17.82,17.82,0,0,0,5.1,3.5A15.14,15.14,0,0,0,391.41,552.2ZM404,502l-2.8,4.9-9.7-5.6-9.7,5.6L379,502l6.1-4.4,6.5-4.7,6.5,4.7Z"/>
          <path class="cls-1" d="M519.91,560.3h-9.7V536a15.14,15.14,0,0,0-1.3-6.3,16,16,0,0,0-3.5-5.1,17.82,17.82,0,0,0-5.1-3.5,16.9,16.9,0,0,0-6.3-1.3,16.57,16.57,0,0,0-7.5,1.8,15.55,15.55,0,0,0-5.6,4.9,25.47,25.47,0,0,1,1.8,9.5v24.3H473V536a15.45,15.45,0,0,0-3.1-9.5,16.43,16.43,0,0,0-5.6-4.9,16,16,0,0,0-7.5-1.8,16,16,0,0,0-11.4,4.8,17.82,17.82,0,0,0-3.5,5.1,16.9,16.9,0,0,0-1.3,6.3v24.3h-9.7V536a26.75,26.75,0,0,1,2-10.1,27.31,27.31,0,0,1,5.5-8.3,25.59,25.59,0,0,1,8.3-5.5,26.75,26.75,0,0,1,10.1-2,26,26,0,0,1,10.3,2.1,25.39,25.39,0,0,1,8.3,5.8,26.48,26.48,0,0,1,8.3-5.8,26,26,0,0,1,10.3-2.1,26.75,26.75,0,0,1,10.1,2,27.31,27.31,0,0,1,8.3,5.5,25.59,25.59,0,0,1,5.5,8.3,26.75,26.75,0,0,1,2,10.1v24.3Z"/>
          <path class="cls-1" d="M557.81,510.1a26.75,26.75,0,0,1,10.1,2,27.31,27.31,0,0,1,8.3,5.5,25.59,25.59,0,0,1,5.5,8.3,26.75,26.75,0,0,1,2,10.1v24.3H574v-4a27.19,27.19,0,0,1-7.4,4.2,25.68,25.68,0,0,1-8.7,1.5,26.75,26.75,0,0,1-10.1-2,27.31,27.31,0,0,1-8.3-5.5,25.59,25.59,0,0,1-5.5-8.3,26.5,26.5,0,0,1,0-20.2,27.31,27.31,0,0,1,5.5-8.3,25.59,25.59,0,0,1,8.3-5.5A23.9,23.9,0,0,1,557.81,510.1Zm0,42.1a15.14,15.14,0,0,0,6.3-1.3,16,16,0,0,0,5.1-3.5,15.72,15.72,0,0,0,3.4-5.1,15.92,15.92,0,0,0,0-12.6,16.27,16.27,0,0,0-3.4-5.1,17.82,17.82,0,0,0-5.1-3.5,16.9,16.9,0,0,0-6.3-1.3,16,16,0,0,0-11.4,4.8,17.82,17.82,0,0,0-3.5,5.1,16.9,16.9,0,0,0-1.3,6.3,15.14,15.14,0,0,0,1.3,6.3,16,16,0,0,0,3.5,5.1,17.82,17.82,0,0,0,5.1,3.5A14.51,14.51,0,0,0,557.81,552.2Z"/>
          <path class="cls-1" d="M621.51,510.1a26.75,26.75,0,0,1,10.1,2,27.31,27.31,0,0,1,8.3,5.5,25.59,25.59,0,0,1,5.5,8.3,26.75,26.75,0,0,1,2,10.1v24.3a25.23,25.23,0,0,1-3.5,12.9l-8.4-4.4a16.84,16.84,0,0,0,2.2-8.5v-4a1.38,1.38,0,0,0-.4.3,25.43,25.43,0,0,1-13.1,5.2,22.6,22.6,0,0,1-2.6.1,25.22,25.22,0,0,1-15.7-5.3,24.92,24.92,0,0,1-7.1-8.4,25.51,25.51,0,0,1-3-12.1,26.75,26.75,0,0,1,2-10.1,27.31,27.31,0,0,1,5.5-8.3,25.59,25.59,0,0,1,8.3-5.5A23.44,23.44,0,0,1,621.51,510.1Zm15.7,29.6a15.53,15.53,0,0,0,.4-3.7,15.14,15.14,0,0,0-1.3-6.3,16,16,0,0,0-3.5-5.1,17.82,17.82,0,0,0-5.1-3.5,16.9,16.9,0,0,0-6.3-1.3,15.14,15.14,0,0,0-6.3,1.3,16,16,0,0,0-5.1,3.5,17.82,17.82,0,0,0-3.5,5.1,16.9,16.9,0,0,0-1.3,6.3,15,15,0,0,0,.4,3.7,16,16,0,0,0,5.1,8.4,15.47,15.47,0,0,0,10.7,4,15.65,15.65,0,0,0,10.7-4A14.24,14.24,0,0,0,637.21,539.7Z"/>
          <path class="cls-1" d="M685.21,510.1a26.75,26.75,0,0,1,10.1,2,27.31,27.31,0,0,1,8.3,5.5,25.59,25.59,0,0,1,5.5,8.3,26.5,26.5,0,0,1,0,20.2,27.31,27.31,0,0,1-5.5,8.3,25.59,25.59,0,0,1-8.3,5.5,26.5,26.5,0,0,1-20.2,0,27.31,27.31,0,0,1-8.3-5.5,25.59,25.59,0,0,1-5.5-8.3,26.5,26.5,0,0,1,0-20.2,27.31,27.31,0,0,1,5.5-8.3,25.59,25.59,0,0,1,8.3-5.5A27.14,27.14,0,0,1,685.21,510.1ZM669.11,536a15.14,15.14,0,0,0,1.3,6.3,16,16,0,0,0,3.5,5.1,17.82,17.82,0,0,0,5.1,3.5,16.9,16.9,0,0,0,6.3,1.3,15.14,15.14,0,0,0,6.3-1.3,16,16,0,0,0,5.1-3.5,15.72,15.72,0,0,0,3.4-5.1,15.92,15.92,0,0,0,0-12.6,16.27,16.27,0,0,0-3.4-5.1,17.82,17.82,0,0,0-5.1-3.5,16.9,16.9,0,0,0-6.3-1.3,16,16,0,0,0-11.4,4.8,17.82,17.82,0,0,0-3.5,5.1A15.14,15.14,0,0,0,669.11,536Z"/>
        </g>
        <g id="Layer_2-2" data-name="Layer 2">
          <path class="cls-1" d="M647,563.6h-9.6a15.86,15.86,0,0,1-31.2,0h-9.4a25.14,25.14,0,0,0,25,22.4A25.41,25.41,0,0,0,647,563.6Z"/>
        </g>
      </g>
    </g>
  </g>
</svg>
